<svg xmlns="http://www.w3.org/2000/svg" width="1024" height="1024" viewBox="0 0 1024 1024">
<g>
<path d="M 606.54 861.90 C594.47,863.12 591.69,863.12 581.50,861.91 C558.22,859.14 537.17,849.19 522.79,834.17 C519.09,830.31 515.12,826.85 513.95,826.48 C509.10,824.94 504.79,826.98 497.05,834.47 C480.61,850.38 461.89,858.70 436.87,861.21 C426.95,862.21 423.48,862.13 413.37,860.71 C385.85,856.85 359.82,843.45 341.31,823.62 C328.22,809.61 316.95,789.76 314.00,775.53 C312.38,767.70 308.57,763.77 300.43,761.53 C276.38,754.91 263.98,749.29 249.84,738.61 C234.81,727.25 224.28,714.57 215.53,697.29 C206.32,679.12 203.00,664.11 202.99,640.64 C202.99,639.85 203.00,639.10 203.00,638.38 C203.00,630.16 203.01,626.33 201.66,623.06 C200.38,619.93 197.86,617.31 192.94,611.82 C189.33,607.79 184.69,602.14 182.62,599.27 C178.07,592.95 169.00,575.38 169.00,572.90 C169.00,571.92 168.60,570.87 168.11,570.57 C167.62,570.27 166.28,566.53 165.13,562.26 C152.22,514.36 162.04,467.36 192.50,431.30 C198.50,424.19 201.39,421.13 202.76,417.50 C204.03,414.14 204.02,410.30 204.00,402.35 C204.00,401.16 204.00,399.88 204.00,398.50 C204.01,378.39 205.41,367.97 210.05,353.54 C222.61,314.48 257.89,281.66 299.32,270.50 C306.95,268.45 311.53,264.94 312.51,260.40 C315.22,247.85 323.09,231.79 332.15,220.34 C343.02,206.62 360.13,192.90 376.73,184.61 C387.23,179.36 387.06,180.25 376.49,185.78 C345.39,202.08 323.53,227.11 314.95,256.25 C312.54,264.45 308.52,269.52 303.60,270.57 C292.25,273.00 262.30,287.07 263.69,289.31 C264.04,289.88 263.80,290.00 263.15,289.59 C261.55,288.60 255.96,292.74 256.61,294.43 C256.90,295.18 256.74,296.04 256.26,296.34 C255.13,297.04 256.46,310.87 258.11,315.42 C259.32,318.78 259.48,318.88 261.24,317.29 C262.97,315.71 263.04,315.72 262.40,317.41 C261.99,318.48 264.94,316.81 269.65,313.32 C284.10,302.61 296.44,296.82 313.00,293.00 C318.23,291.79 324.22,290.09 326.32,289.22 C330.68,287.41 334.15,283.56 333.34,281.44 C333.03,280.65 333.34,280.00 334.02,280.00 C334.88,280.00 335.09,278.92 334.69,276.50 C334.38,274.58 334.51,273.00 334.98,273.00 C335.45,273.00 336.83,269.96 338.05,266.25 C341.42,255.94 346.48,245.48 351.39,238.66 C357.14,230.68 368.28,219.39 374.56,215.19 C378.30,212.68 378.65,212.55 376.00,214.67 C353.94,232.35 342.51,250.69 337.06,277.19 C335.77,283.42 333.27,287.29 329.14,289.43 C327.67,290.19 320.62,292.24 313.48,293.98 C278.94,302.43 253.20,323.28 241.66,352.17 C235.90,366.59 234.65,374.64 234.57,397.50 C234.57,398.46 234.56,399.39 234.56,400.27 C234.53,411.97 234.52,417.19 232.58,421.55 C230.88,425.40 227.68,428.58 221.66,434.95 C209.75,447.55 205.14,453.63 199.63,464.00 C189.98,482.20 186.48,499.04 187.28,523.41 C187.72,536.56 188.29,541.21 190.42,548.87 C195.46,566.99 202.26,579.89 214.56,594.68 C224.74,606.93 225.00,607.73 225.00,627.32 C225.00,638.25 225.36,644.00 226.05,644.00 C226.70,644.00 226.84,645.31 226.43,647.50 C225.99,649.89 226.15,651.00 226.96,651.00 C227.68,651.00 227.89,651.77 227.50,653.00 C227.12,654.20 227.32,655.00 228.00,655.00 C228.66,655.00 228.88,655.80 228.53,656.92 C228.19,657.97 228.39,659.13 228.98,659.48 C229.56,659.84 229.80,660.52 229.51,660.99 C228.78,662.16 234.01,676.00 235.17,676.00 C235.69,676.00 235.84,676.45 235.50,677.00 C235.16,677.55 235.43,678.00 236.11,678.00 C236.78,678.00 237.05,678.28 236.71,678.63 C235.86,679.47 238.79,685.00 240.08,685.00 C240.65,685.00 240.87,685.40 240.56,685.90 C240.26,686.39 240.71,687.06 241.57,687.39 C242.43,687.72 242.88,688.39 242.57,688.89 C242.26,689.38 242.71,690.06 243.57,690.39 C244.43,690.72 244.87,691.40 244.55,691.91 C244.24,692.42 245.17,693.78 246.63,694.92 C248.08,696.06 248.89,697.00 248.43,697.00 C247.12,697.00 255.82,705.62 262.65,711.09 C276.53,722.21 294.21,729.60 312.50,731.95 C328.15,733.96 333.96,738.58 336.30,750.91 C336.94,754.26 337.83,757.00 338.30,757.00 C338.76,757.00 338.85,757.90 338.50,759.00 C338.12,760.20 338.32,761.00 339.00,761.00 C339.68,761.00 339.88,761.80 339.50,763.00 C339.11,764.22 339.32,765.00 340.04,765.00 C340.69,765.00 340.95,765.67 340.64,766.50 C340.32,767.33 340.55,768.00 341.14,768.00 C341.73,768.00 341.95,768.67 341.64,769.50 C341.32,770.33 341.53,771.00 342.09,771.00 C342.66,771.00 342.84,771.45 342.50,772.00 C342.16,772.55 342.34,773.00 342.91,773.00 C343.47,773.00 343.70,773.62 343.41,774.37 C343.12,775.13 343.56,776.42 344.39,777.25 C345.23,778.08 345.63,779.04 345.29,779.38 C344.95,779.72 345.22,780.00 345.89,780.00 C346.57,780.00 346.84,780.45 346.50,781.00 C346.16,781.55 346.39,782.00 347.00,782.00 C347.61,782.00 347.84,782.45 347.50,783.01 C347.15,783.56 347.57,784.28 348.43,784.61 C349.29,784.94 349.74,785.61 349.44,786.10 C349.13,786.60 349.39,787.00 350.00,787.00 C350.61,787.00 350.84,787.45 350.50,788.00 C350.16,788.55 350.39,789.00 351.00,789.00 C351.61,789.00 351.85,789.43 351.53,789.95 C351.21,790.47 351.87,791.39 353.00,792.00 C354.13,792.61 354.80,793.51 354.50,794.01 C354.19,794.50 355.07,795.66 356.46,796.57 C357.85,797.47 358.77,798.56 358.51,798.98 C357.21,801.08 375.92,815.94 386.50,821.21 C405.63,830.74 425.07,833.86 444.35,830.50 C472.79,825.54 492.57,807.89 495.96,784.44 C496.51,780.62 497.04,759.50 497.15,737.50 C497.25,715.50 497.51,699.18 497.73,701.23 C498.10,704.80 498.20,704.89 499.92,703.23 C500.92,702.28 502.47,699.91 503.37,697.97 C504.28,696.03 506.99,692.19 509.40,689.44 C512.93,685.40 514.47,684.38 517.30,684.19 C519.44,684.04 521.43,684.57 522.40,685.54 C523.27,686.41 524.44,686.85 524.99,686.50 C525.55,686.16 526.05,686.70 526.12,687.69 C526.18,688.69 526.58,688.15 527.00,686.50 L 527.76 683.50 L 527.88 687.19 C527.97,689.96 527.28,691.66 525.10,694.05 C521.70,697.77 521.72,699.04 525.21,702.74 L 527.81 705.50 L 528.43 747.17 C529.10,792.09 529.15,792.54 535.01,804.03 C540.39,814.57 554.74,825.07 570.50,829.99 C581.03,833.28 599.53,833.83 612.00,831.22 C631.00,827.26 646.66,819.39 660.19,807.01 C675.06,793.41 684.08,777.13 688.41,756.13 C692.28,737.30 694.54,735.15 713.83,731.91 C731.71,728.90 745.16,723.44 758.00,713.97 C763.49,709.93 774.06,699.57 778.78,693.63 C782.75,688.63 788.33,678.37 791.36,670.50 C797.11,655.58 798.37,647.83 798.21,628.50 C798.07,612.36 798.19,611.25 800.51,606.50 C801.85,603.75 805.70,598.35 809.07,594.50 C816.84,585.62 819.87,581.22 824.25,572.50 C833.20,554.68 837.26,537.21 837.26,516.50 C837.26,496.00 833.92,480.78 825.78,464.15 C820.76,453.90 814.99,445.95 804.99,435.50 C800.78,431.10 796.70,426.37 795.93,425.00 C794.82,423.05 794.51,417.25 794.47,398.50 C794.44,376.90 794.22,373.75 792.26,367.00 C785.61,344.08 775.81,329.11 758.85,316.00 C744.57,304.95 727.49,297.14 710.86,294.05 C703.43,292.67 698.91,290.32 696.45,286.56 C695.54,285.17 693.53,278.89 691.98,272.60 C683.14,236.61 660.79,213.02 624.18,201.06 C619.18,199.42 611.12,197.56 606.29,196.91 C595.82,195.51 578.95,196.28 570.64,198.53 C567.42,199.40 564.59,199.92 564.35,199.68 C564.10,199.44 567.19,198.40 571.20,197.37 C581.93,194.62 606.45,194.86 617.33,197.83 C628.41,200.84 641.20,206.24 650.35,211.76 C659.58,217.34 672.23,228.76 677.07,235.89 C678.96,238.67 681.04,240.96 681.69,240.97 C682.35,240.99 683.20,241.52 683.60,242.15 C684.07,242.92 683.87,243.04 683.00,242.50 C682.13,241.96 681.93,242.08 682.40,242.85 C683.80,245.10 684.75,243.94 685.37,239.25 C686.64,229.62 686.67,225.42 685.52,222.05 L 684.33 218.59 L 683.52 222.05 C682.73,225.42 682.69,225.36 681.81,219.50 C681.32,216.20 680.90,212.73 680.89,211.79 C680.88,210.85 677.30,207.06 672.93,203.38 C668.56,199.69 665.21,196.45 665.49,196.18 C665.76,195.90 664.38,194.58 662.42,193.25 C660.45,191.91 658.63,191.04 658.36,191.31 C658.09,191.57 656.70,190.70 655.25,189.36 C653.81,188.02 652.02,187.16 651.26,187.45 C650.51,187.74 650.17,187.53 650.51,186.99 C651.04,186.13 649.00,185.53 646.75,185.88 C646.34,185.95 646.00,185.52 646.00,184.94 C646.00,184.36 645.58,184.14 645.06,184.46 C644.54,184.78 643.30,184.19 642.31,183.15 C640.23,180.96 629.10,177.01 617.50,174.34 C611.36,172.93 605.44,172.50 592.00,172.50 C582.38,172.50 572.94,172.85 571.03,173.27 C568.72,173.78 567.90,173.70 568.56,173.04 C569.11,172.49 575.10,171.49 581.87,170.81 C592.44,169.75 595.95,169.81 606.84,171.21 C622.76,173.27 634.73,176.73 647.50,182.97 C666.85,192.44 683.50,205.77 695.35,221.28 C701.87,229.81 710.32,246.86 712.58,256.00 C715.27,266.90 716.73,268.20 730.50,271.95 C740.56,274.68 760.38,284.32 769.30,290.80 C796.02,310.24 812.23,334.25 820.06,366.00 C822.08,374.19 822.42,378.19 822.53,395.00 C822.61,407.64 822.53,412.76 824.29,417.14 C825.65,420.52 828.10,423.46 832.57,429.08 C849.49,450.37 858.02,468.03 863.13,492.31 C865.96,505.78 866.21,531.88 863.64,546.00 C859.08,571.07 847.27,595.35 830.56,614.00 C826.87,618.12 823.50,622.40 823.07,623.50 C822.65,624.60 822.47,631.94 822.67,639.81 C823.36,666.34 817.43,686.58 802.31,709.34 C785.72,734.31 759.66,753.01 733.00,759.08 C716.70,762.78 712.76,765.29 711.39,772.85 C710.25,779.08 704.99,793.19 701.27,800.00 C690.09,820.43 673.44,836.91 652.88,847.90 C637.55,856.09 624.19,860.13 606.54,861.90 ZM 613.00 816.47 C597.79,819.41 583.39,818.74 570.34,814.48 C566.16,813.12 561.68,812.00 560.37,812.00 C559.07,812.00 558.00,811.55 558.00,810.99 C558.00,810.43 556.49,810.17 554.58,810.41 C552.23,810.70 550.70,810.31 549.70,809.16 C546.49,805.50 544.64,800.30 544.48,794.50 C544.39,791.20 543.99,787.49 543.59,786.25 C542.55,783.02 543.79,779.80 545.83,780.44 C546.75,780.72 548.12,780.56 548.88,780.09 C550.00,779.38 549.74,778.48 547.52,775.36 L 544.78 771.50 L 548.14 775.06 C553.70,780.95 561.44,784.48 568.50,784.35 C575.42,784.23 580.43,782.31 585.50,777.86 C591.57,772.54 594.06,767.15 595.01,757.27 L 595.86 748.50 L 595.60 757.00 C595.39,763.86 594.84,766.48 592.73,770.60 L 590.12 775.70 L 592.55 775.24 C594.05,774.95 596.67,772.49 599.45,768.75 C605.25,760.94 606.77,753.91 607.50,731.50 C607.80,722.15 608.66,712.25 609.40,709.50 C613.14,695.71 626.47,681.08 638.11,677.99 C640.52,677.34 645.50,675.51 649.17,673.91 C652.83,672.31 658.68,670.28 662.17,669.40 C665.65,668.52 669.40,667.04 670.50,666.10 C671.60,665.17 674.97,662.80 678.00,660.84 C681.03,658.88 686.42,654.58 690.00,651.30 C704.60,637.87 705.98,636.97 713.90,635.88 C721.81,634.78 722.29,632.84 715.03,631.36 C711.81,630.70 708.26,629.67 707.15,629.08 C706.04,628.49 704.34,628.00 703.38,628.00 C702.42,628.00 694.85,634.67 686.57,642.82 C676.17,653.04 671.41,657.96 665.61,660.33 C660.24,662.52 653.99,662.54 641.57,662.57 C640.74,662.58 639.88,662.58 639.00,662.58 L 616.50 662.66 L 638.50 662.08 C667.26,661.32 666.53,661.64 687.51,640.92 L 702.79 625.84 L 705.65 627.32 C710.47,629.81 723.18,631.30 728.16,629.96 C744.65,625.52 754.20,612.90 754.26,595.50 C754.30,584.75 751.67,577.98 744.72,570.93 C740.96,567.10 740.41,566.26 742.75,567.88 C746.87,570.74 750.32,575.25 753.20,581.56 C755.06,585.62 755.45,588.18 755.41,596.00 C755.35,606.28 754.36,609.62 748.96,617.83 L 745.88 622.50 L 751.35 616.78 C759.05,608.72 760.32,604.81 759.79,590.82 C759.29,577.49 757.14,571.64 749.75,563.46 C742.82,555.80 737.02,553.06 718.00,548.47 C712.20,547.07 697.96,547.97 695.64,549.88 C695.01,550.39 692.42,551.12 689.88,551.50 C685.46,552.16 685.17,552.05 682.97,548.84 C681.71,547.00 681.29,546.06 682.04,546.75 C684.27,548.80 688.64,548.18 692.02,545.33 C694.70,543.08 695.09,542.20 694.57,539.60 C693.75,535.48 691.96,533.89 688.00,533.78 C685.43,533.71 684.06,534.43 681.78,537.09 C679.83,539.37 678.68,540.07 678.33,539.21 C677.90,538.15 677.51,538.15 676.19,539.21 C674.95,540.20 675.04,539.69 676.58,537.00 C677.68,535.08 679.43,531.25 680.46,528.50 C681.49,525.75 683.19,522.34 684.23,520.92 C685.27,519.50 686.22,517.69 686.34,516.90 C686.65,514.77 690.99,507.94 694.30,504.38 C695.90,502.66 699.29,500.27 701.85,499.06 C704.41,497.86 707.39,496.38 708.49,495.78 C709.58,495.18 715.43,493.18 721.49,491.33 C727.59,489.47 734.41,486.64 736.78,484.99 C739.13,483.34 741.40,482.00 741.83,482.00 C742.25,482.00 744.16,480.31 746.08,478.25 C761.53,461.65 765.01,437.83 754.92,417.84 C750.40,408.89 748.35,406.46 741.55,402.04 C726.92,392.51 713.10,390.92 694.07,396.57 C687.97,398.38 677.29,406.47 672.65,412.80 C669.53,417.05 668.61,417.69 666.09,417.40 C663.40,417.09 663.18,417.29 663.50,419.80 C663.70,421.37 663.08,423.56 662.07,424.90 C660.23,427.35 654.15,429.96 650.25,429.98 C649.01,429.99 648.00,430.45 648.00,431.00 C648.00,431.55 647.41,432.00 646.70,432.00 C645.20,432.00 636.89,426.18 635.72,424.32 C635.30,423.64 634.34,423.32 633.60,423.60 C632.67,423.96 632.02,422.95 631.55,420.41 C631.17,418.38 630.21,415.72 629.42,414.51 C628.56,413.21 627.94,409.60 627.88,405.63 C627.80,400.02 628.20,398.30 630.34,395.07 C631.82,392.83 633.62,391.27 634.63,391.35 C635.88,391.46 636.60,390.41 637.20,387.59 C638.03,383.69 640.66,380.82 655.30,367.77 C664.33,359.73 672.95,349.61 675.76,343.76 C679.85,335.23 682.62,323.10 682.94,312.31 C682.99,310.49 683.77,310.01 687.64,309.43 C700.20,307.54 727.50,316.46 746.00,328.48 C764.95,340.79 777.18,359.45 782.09,383.50 C784.67,396.13 786.69,393.16 786.86,376.50 C786.95,367.88 786.54,362.94 785.49,359.97 C783.75,355.03 783.66,354.00 784.96,354.00 C786.28,354.00 790.75,368.55 792.13,377.30 C792.83,381.79 793.06,391.24 792.72,402.42 C792.42,412.27 792.56,421.35 793.03,422.59 C793.63,424.16 793.47,425.20 792.51,425.99 C790.95,427.29 789.74,425.79 785.87,417.74 C784.62,415.11 783.12,413.12 782.54,413.31 C781.97,413.50 780.49,415.15 779.25,416.97 C776.40,421.18 776.31,427.23 779.02,432.54 C780.27,434.98 780.83,437.49 780.48,439.08 C779.71,442.59 781.38,446.55 784.49,448.58 C788.07,450.93 788.57,449.83 785.54,446.23 C782.45,442.56 782.32,441.00 785.09,441.00 C787.59,441.00 801.92,455.17 808.63,464.28 C814.47,472.21 820.07,484.16 823.03,495.00 C824.88,501.80 825.35,506.10 825.38,516.50 C825.44,537.14 821.86,549.10 808.24,573.77 C801.80,585.43 801.27,587.00 803.76,587.00 C804.80,587.00 806.71,585.88 808.00,584.50 C810.42,581.93 813.00,581.18 813.00,583.06 C813.00,583.64 812.51,583.81 811.90,583.44 C811.16,582.98 811.18,583.47 811.97,584.95 C813.02,586.91 812.52,587.91 807.22,594.32 C797.72,605.81 796.65,608.53 796.19,622.15 C795.81,633.39 795.72,633.79 793.65,633.52 C792.47,633.36 790.73,632.92 789.79,632.53 C788.51,632.00 787.98,632.40 787.66,634.16 C784.86,649.64 783.58,654.21 779.40,663.69 C776.77,669.63 772.92,677.03 770.86,680.12 C765.20,688.58 749.62,703.55 742.10,707.76 C734.68,711.91 724.26,715.89 719.06,716.57 C717.10,716.82 711.40,717.64 706.40,718.39 C692.98,720.39 687.43,723.69 694.22,725.63 C696.95,726.41 697.55,727.11 697.82,729.81 C698.07,732.47 697.33,733.95 693.69,738.00 C690.83,741.18 688.84,744.56 688.10,747.51 C687.47,750.03 686.51,751.82 685.97,751.48 C685.44,751.15 684.99,751.25 684.98,751.69 C684.95,753.27 679.25,758.95 676.75,759.91 C674.92,760.60 673.75,762.25 672.59,765.73 C670.04,773.39 657.95,790.95 650.54,797.75 C640.50,806.95 626.72,813.82 613.00,816.47 ZM 451.00 814.89 C441.41,817.08 435.19,817.77 429.86,817.25 C426.83,816.95 426.30,816.57 426.72,814.96 C427.00,813.90 426.93,811.86 426.57,810.42 L 425.91 807.80 L 423.50 810.40 C419.29,814.94 414.30,813.39 415.34,807.85 L 415.96 804.50 L 413.92 806.94 C412.79,808.29 412.08,810.20 412.34,811.19 C412.74,812.72 412.17,813.00 408.66,813.01 C405.64,813.01 401.69,811.60 394.24,807.86 C376.46,798.93 360.71,781.92 352.54,762.84 C348.84,754.18 344.83,749.25 339.54,746.83 C338.04,746.15 336.61,744.28 335.92,742.10 C335.29,740.12 334.26,738.05 333.62,737.50 C330.96,735.22 328.00,730.60 328.00,728.74 C328.00,726.97 328.46,726.82 332.00,727.38 C335.02,727.87 336.00,727.69 336.00,726.67 C336.00,722.87 328.51,719.54 316.43,717.96 C306.73,716.69 291.85,712.70 288.25,710.39 C285.58,708.69 285.37,706.35 287.66,703.82 C289.85,701.41 288.55,700.19 286.13,702.38 C284.35,703.99 284.09,703.95 281.23,701.54 C278.23,699.01 276.00,698.27 276.00,699.80 C276.00,700.24 276.51,701.11 277.14,701.74 C278.00,702.60 277.69,702.74 275.89,702.28 C269.30,700.60 255.18,684.04 248.49,670.15 C243.54,659.85 240.33,645.97 239.55,631.50 C239.20,624.90 238.58,617.92 238.16,616.00 C237.20,611.47 234.61,611.31 234.19,615.75 C233.79,619.82 232.00,620.05 232.00,616.04 C232.00,614.09 231.31,612.70 230.00,612.00 C228.90,611.41 228.00,611.22 228.00,611.57 C228.00,611.92 226.62,609.57 224.93,606.35 C223.24,603.13 221.03,599.60 220.02,598.50 C218.02,596.33 218.51,595.41 222.81,593.10 C226.00,591.40 225.53,588.90 220.70,581.81 C209.72,565.70 203.65,552.49 202.07,541.25 L 201.33 536.00 L 204.23 536.00 C207.66,536.00 211.00,534.40 211.00,532.76 C211.00,531.90 210.69,531.91 209.80,532.80 C208.51,534.09 205.00,534.46 205.00,533.30 C205.00,532.92 206.18,531.37 207.63,529.86 C209.20,528.22 210.02,526.49 209.66,525.56 C208.99,523.80 204.82,523.49 202.00,525.00 C200.51,525.80 200.01,525.60 199.50,524.00 C198.00,519.26 203.08,497.45 208.30,486.27 C210.89,480.73 217.59,471.49 221.38,468.26 C222.82,467.02 224.00,465.56 224.00,465.01 C224.00,463.80 237.69,453.55 240.50,452.66 C241.60,452.31 243.72,450.89 245.21,449.51 C246.69,448.13 248.27,446.99 248.71,446.99 C250.68,446.95 259.91,436.15 260.27,433.46 C260.64,430.67 258.31,420.16 256.17,415.00 C253.14,407.68 251.77,397.64 252.17,385.64 C252.55,374.36 252.82,372.89 255.62,367.44 C260.88,357.15 264.09,352.72 271.90,344.91 C286.90,329.92 304.73,318.82 314.34,318.49 C317.00,318.40 319.48,317.90 319.84,317.39 C321.31,315.32 339.86,312.38 355.04,311.80 C357.73,311.70 364.62,315.64 365.45,317.76 C365.84,318.76 360.10,337.44 354.15,354.50 C353.57,356.15 352.58,360.88 351.94,365.00 C350.40,374.96 349.29,378.62 346.17,384.00 C344.73,386.48 343.66,388.84 343.78,389.25 C343.90,389.66 342.86,390.00 341.47,390.00 C337.87,390.00 332.45,392.46 329.46,395.44 C328.06,396.85 325.81,398.00 324.47,398.00 C318.84,398.00 300.54,403.25 291.24,407.53 C281.28,412.12 266.42,426.88 261.57,437.00 C255.77,449.10 255.89,461.32 261.99,478.70 C266.39,491.24 280.35,510.10 288.18,514.09 C290.22,515.13 292.28,516.67 292.75,517.51 C293.22,518.35 295.83,520.52 298.55,522.33 C314.74,533.11 319.66,537.00 317.09,537.00 C314.88,537.00 317.85,540.75 320.90,541.82 C323.82,542.83 326.74,546.60 325.54,547.80 C325.19,548.14 324.08,547.91 323.06,547.27 C322.05,546.64 320.95,546.39 320.62,546.72 C319.67,547.66 322.06,550.00 323.96,550.00 C324.91,550.00 326.22,551.18 326.88,552.63 C327.88,554.83 327.80,555.57 326.38,557.13 C324.25,559.49 318.32,559.60 315.81,557.33 C313.33,555.08 309.77,554.94 308.29,557.03 C307.04,558.78 301.89,560.41 298.72,560.06 C297.73,559.95 294.65,560.62 291.85,561.55 C278.20,566.08 264.25,577.59 259.46,588.27 C254.63,599.04 254.21,616.31 258.55,625.47 C260.61,629.81 265.78,635.26 267.07,634.46 C267.66,634.09 269.30,634.85 270.71,636.15 C272.32,637.63 271.78,636.51 269.23,633.11 C266.97,630.10 264.48,625.20 263.59,622.04 C260.85,612.26 261.77,599.18 265.54,594.45 C266.66,593.05 266.59,593.48 265.30,596.00 C263.89,598.73 263.51,601.80 263.54,610.00 C263.58,619.97 263.74,620.78 266.83,626.18 C270.75,633.04 275.56,637.43 282.95,640.90 C287.48,643.02 289.97,643.50 296.50,643.50 C306.67,643.50 312.16,641.00 320.48,632.56 C326.45,626.51 326.46,626.51 323.07,631.24 C321.20,633.85 317.22,637.67 314.21,639.74 C308.17,643.89 309.10,645.28 316.34,642.89 C318.54,642.16 322.59,641.55 325.34,641.53 C330.14,641.50 330.38,641.63 331.19,644.71 C332.09,648.13 335.30,651.00 338.23,651.00 C339.21,651.00 341.44,649.64 343.17,647.98 C346.86,644.46 347.14,644.50 358.50,650.34 C365.36,653.86 368.86,656.79 383.00,670.79 C392.08,679.78 403.01,689.69 407.30,692.82 C411.59,695.94 418.56,701.11 422.80,704.30 C427.03,707.48 432.98,711.28 436.00,712.74 C439.02,714.19 442.57,716.19 443.88,717.19 C445.20,718.19 447.05,719.00 447.99,719.00 C448.94,719.00 451.67,720.54 454.04,722.42 C456.42,724.31 459.76,726.11 461.47,726.43 C463.17,726.75 466.04,728.36 467.84,730.00 C469.65,731.65 471.63,733.00 472.24,733.00 C472.86,733.00 475.95,735.64 479.11,738.87 C485.75,745.65 485.45,744.51 487.07,769.00 C487.95,782.30 487.94,787.53 487.06,790.80 C485.54,796.42 477.00,805.26 470.38,808.07 C467.70,809.21 464.15,810.77 462.50,811.54 C460.85,812.31 455.67,813.82 451.00,814.89 ZM 528.53 309.50 C528.83,348.00 528.67,390.08 528.19,403.00 C527.71,415.92 527.25,426.00 527.16,425.39 C527.07,424.78 525.76,424.41 524.25,424.58 C519.69,425.08 508.41,423.32 505.36,421.63 C503.79,420.76 501.71,419.76 500.75,419.41 C499.79,419.06 498.97,418.26 498.93,417.63 C498.89,417.01 498.46,417.40 497.98,418.50 C497.46,419.67 497.11,380.24 497.13,323.00 C497.15,269.38 496.87,224.60 496.51,223.50 C495.91,221.67 495.95,221.65 496.99,223.28 C497.62,224.27 498.50,228.77 498.93,233.28 C499.37,237.80 499.79,240.69 499.86,239.69 C499.94,238.70 500.41,238.14 500.91,238.45 C501.41,238.76 504.08,236.44 506.83,233.30 C512.82,226.48 516.03,225.77 519.96,230.39 C521.32,231.99 522.52,233.96 522.64,234.78 C522.76,235.59 523.34,236.74 523.93,237.33 C524.69,238.09 525.00,237.83 525.00,236.42 C525.00,235.33 525.90,233.67 527.00,232.73 C528.10,231.79 529.00,230.23 529.01,229.26 C529.03,226.03 534.84,217.29 539.93,212.84 C544.95,208.45 556.26,201.84 561.00,200.52 C562.38,200.14 559.45,201.89 554.50,204.41 C538.67,212.47 532.25,219.70 529.46,232.64 C528.21,238.47 528.07,250.04 528.53,309.50 ZM 554.50 338.72 C550.65,342.13 546.07,346.35 544.32,348.09 L 541.15 351.27 L 540.07 347.25 C538.86,342.75 538.60,279.25 539.79,277.37 C540.18,276.74 541.36,276.07 542.42,275.87 C543.47,275.66 545.76,273.48 547.49,271.00 C549.23,268.52 551.65,266.00 552.87,265.39 C554.09,264.77 556.44,262.44 558.08,260.21 C560.09,257.47 562.11,255.93 564.28,255.47 C566.05,255.11 568.62,254.08 570.00,253.19 C572.87,251.34 575.28,250.74 574.45,252.09 C573.62,253.43 574.76,253.20 577.35,251.50 C579.19,250.30 582.18,250.10 592.57,250.48 C605.65,250.96 607.75,251.18 611.68,252.48 C614.16,253.30 613.83,255.24 610.65,258.62 C609.55,259.78 608.53,261.56 608.39,262.58 C608.00,265.17 604.65,271.97 603.75,271.99 C603.34,271.99 603.00,272.67 603.00,273.50 C603.00,274.33 602.57,275.00 602.05,275.00 C601.26,275.00 597.97,279.67 593.49,287.15 C592.94,288.06 589.24,293.35 585.26,298.92 C581.28,304.49 577.13,310.72 576.03,312.77 C573.24,318.01 571.83,319.60 569.25,320.42 C568.01,320.81 566.99,321.89 566.98,322.82 C566.95,325.69 561.81,332.24 554.50,338.72 ZM 622.59 871.13 C611.00,873.76 587.06,874.50 575.47,872.58 C555.59,869.30 538.06,861.57 522.21,849.10 C515.95,844.17 511.00,841.00 509.56,841.00 C508.12,841.00 504.15,843.56 499.35,847.57 C485.59,859.08 472.03,865.86 453.12,870.67 C445.24,872.68 419.30,873.52 410.00,872.07 C401.64,870.77 387.04,866.75 384.29,865.00 C382.16,863.64 382.68,863.75 397.00,867.58 C415.02,872.40 437.83,872.58 456.05,868.05 C470.94,864.34 487.91,855.55 498.25,846.19 C504.21,840.80 507.09,839.00 509.75,839.00 C511.14,839.00 515.72,842.00 521.28,846.55 C532.69,855.89 550.15,864.83 564.50,868.69 C573.80,871.19 575.96,871.38 595.50,871.44 C615.44,871.50 616.98,871.36 626.00,868.78 C655.53,860.34 679.75,844.90 696.76,823.64 C707.16,810.66 717.47,790.72 719.40,779.85 C720.34,774.61 723.40,771.19 727.79,770.47 C742.53,768.05 760.09,760.73 774.60,750.93 C794.98,737.18 814.75,712.18 823.86,688.64 C830.73,670.89 832.41,661.92 832.46,642.66 L 832.50 625.82 L 838.98 618.37 C847.80,608.23 853.09,600.43 858.86,589.08 C867.34,572.39 870.85,561.21 873.47,542.54 C879.76,497.78 867.01,453.71 838.11,420.28 L 831.87 413.05 L 832.31 404.28 C832.94,391.62 831.42,372.55 828.92,361.80 C826.29,350.45 820.62,335.80 815.03,325.90 C798.97,297.45 769.91,274.16 737.00,263.38 C730.67,261.31 725.18,259.14 724.78,258.56 C724.38,257.98 722.89,253.90 721.45,249.50 C714.72,228.88 700.55,207.98 684.42,194.89 C661.44,176.24 640.37,166.29 613.71,161.51 C605.85,160.10 600.53,159.86 586.71,160.28 C571.16,160.77 568.49,161.12 559.02,163.97 C546.30,167.80 530.82,175.39 522.59,181.84 C519.24,184.46 515.95,186.94 515.28,187.34 C514.55,187.79 510.91,185.90 506.28,182.69 C483.53,166.89 466.04,161.08 438.78,160.25 C420.20,159.67 411.13,160.79 395.01,165.64 C365.23,174.60 337.77,194.36 319.40,220.04 C313.77,227.91 303.21,249.11 302.36,254.23 C302.03,256.28 301.24,258.33 300.63,258.78 C300.01,259.23 295.98,260.60 291.67,261.83 C269.74,268.08 243.13,285.15 227.74,302.85 C216.40,315.89 206.36,332.85 201.30,347.50 C195.48,364.34 194.84,368.35 194.28,391.25 L 193.76 413.00 L 184.63 424.38 C166.45,447.03 156.66,468.31 151.45,496.50 C149.30,508.07 149.91,539.47 152.50,551.00 C158.45,577.53 170.91,601.94 188.09,620.69 C190.20,623.00 192.15,625.92 192.41,627.19 C192.67,628.46 193.11,637.15 193.39,646.50 C193.92,664.55 195.32,672.45 200.55,687.00 C211.23,716.67 232.33,741.24 261.21,757.63 C269.80,762.51 275.47,764.70 289.35,768.51 C295.87,770.30 301.77,772.38 302.46,773.13 C303.15,773.89 304.89,778.33 306.32,783.00 C309.59,793.69 316.60,808.15 322.71,816.83 C329.38,826.28 345.06,841.50 355.02,848.19 C359.69,851.33 367.77,856.19 373.00,859.00 C382.96,864.36 381.84,864.91 371.50,859.74 C359.17,853.57 345.57,843.75 335.98,834.09 C324.83,822.86 318.45,814.19 312.44,802.09 C308.32,793.80 303.00,779.32 303.00,776.40 C303.00,774.28 299.15,772.39 291.00,770.49 C246.88,760.22 209.42,724.00 196.57,679.19 C192.73,665.81 190.36,645.77 191.35,635.09 C191.42,634.39 191.49,633.77 191.55,633.22 C191.71,631.88 191.82,630.90 191.71,629.94 C191.38,627.01 188.96,624.31 179.24,611.86 C165.44,594.17 156.07,574.06 151.27,551.81 C148.92,540.94 148.61,537.27 148.60,520.50 C148.58,504.63 148.94,499.85 150.77,491.50 C156.79,463.99 166.55,444.17 185.77,420.42 L 192.32 412.33 L 192.54 393.42 C192.78,373.12 193.93,364.98 198.69,350.00 C206.24,326.25 224.72,300.10 244.97,284.52 C259.40,273.42 277.93,263.85 292.16,260.16 L 299.16 258.34 L 301.66 250.93 C309.36,228.06 328.27,202.76 349.50,186.92 C385.26,160.23 430.54,151.33 470.33,163.14 C483.06,166.93 492.69,171.53 504.72,179.57 C510.01,183.11 514.48,186.00 514.66,186.00 C514.84,186.00 517.80,183.73 521.24,180.95 C529.09,174.62 546.71,165.92 558.50,162.57 C595.06,152.16 636.53,159.60 671.00,182.74 C696.53,199.89 714.70,222.97 723.43,249.35 C725.04,254.22 726.84,258.34 727.43,258.50 C743.95,263.11 762.32,271.31 773.75,279.17 C787.59,288.70 802.83,303.90 811.82,317.17 C821.04,330.77 830.00,354.03 832.56,370.99 C833.35,376.27 833.99,387.78 833.99,396.84 L 834.00 413.19 L 839.52 419.28 C856.38,437.91 869.95,466.01 874.43,491.54 C882.79,539.16 869.39,588.33 839.36,620.32 L 833.76 626.28 L 834.43 635.89 C837.32,677.43 815.34,722.84 779.23,749.92 C765.70,760.06 748.13,767.87 729.00,772.24 L 723.50 773.50 L 720.40 783.00 C713.71,803.50 705.11,817.85 690.40,833.00 C671.44,852.54 649.07,865.12 622.59,871.13 ZM 832.40 544.77 C831.29,549.79 830.20,552.36 828.88,553.06 C826.23,554.48 825.52,552.22 827.09,547.34 C827.94,544.72 828.43,533.65 828.63,512.50 C828.79,495.45 828.97,480.60 829.02,479.50 C829.21,475.76 833.09,489.46 834.54,499.00 C836.83,514.06 836.20,527.60 832.40,544.77 ZM 696.50 536.19 C699.09,536.72 701.71,536.08 702.81,534.64 C704.38,532.60 704.83,530.35 703.96,528.94 C703.32,527.90 702.88,528.19 702.12,530.19 C700.99,533.15 699.41,534.47 698.58,533.13 C698.27,532.63 698.72,531.65 699.57,530.95 C702.30,528.67 703.37,525.85 701.85,524.89 C697.56,522.17 692.00,525.35 692.00,530.53 C692.00,533.96 693.25,535.53 696.50,536.19 ZM 700.00 288.57 C700.00,289.77 702.37,288.33 703.71,286.31 C704.84,284.61 704.86,283.99 703.79,282.87 C703.08,282.11 702.50,280.83 702.50,280.00 C702.50,278.99 701.28,278.40 698.75,278.19 C696.58,278.01 695.00,278.33 695.00,278.94 C695.00,279.52 695.90,280.00 697.00,280.00 C699.11,280.00 699.69,281.45 698.00,282.50 C697.45,282.84 697.00,283.84 697.00,284.71 C697.00,286.10 697.26,286.07 699.01,284.49 C701.43,282.30 702.90,283.33 701.21,286.03 C700.55,287.10 700.00,288.24 700.00,288.57 ZM 826.46 560.94 C826.79,561.47 825.77,564.73 824.20,568.20 C821.58,574.00 821.31,574.28 820.81,571.75 C820.51,570.20 820.86,568.24 821.61,567.25 C822.34,566.29 822.95,564.91 822.97,564.18 C823.01,562.31 825.74,559.78 826.46,560.94 ZM 205.51 528.99 C204.51,530.10 203.28,531.00 202.77,531.00 C201.30,531.00 202.34,527.81 204.20,526.64 C206.71,525.06 207.61,526.67 205.51,528.99 ZM 328.61 651.43 C329.35,653.36 331.50,652.98 331.50,650.92 C331.50,649.22 326.21,648.39 324.73,649.87 C324.04,650.56 324.39,650.71 325.84,650.33 C327.27,649.96 328.19,650.32 328.61,651.43 ZM 698.84 526.50 C699.14,526.81 698.40,528.04 697.19,529.25 L 695.00 531.44 L 695.00 529.33 C695.00,527.31 697.68,525.34 698.84,526.50 ZM 528.00 698.88 C528.00,702.53 527.87,702.63 526.29,700.09 C525.33,698.55 525.38,697.93 526.54,696.96 C527.77,695.95 528.00,696.26 528.00,698.88 ZM 276.00 697.69 C276.00,698.98 278.86,697.45 280.41,695.32 L 282.31 692.71 L 279.16 695.04 C277.42,696.33 276.00,697.52 276.00,697.69 ZM 340.54 646.93 C340.18,647.52 339.14,648.00 338.23,648.00 C336.70,648.00 336.70,647.87 338.26,646.31 C340.00,644.57 341.71,645.04 340.54,646.93 ZM 555.56 177.42 C553.34,179.23 552.00,179.45 552.00,178.00 C552.00,177.45 552.41,177.00 552.92,177.00 C553.42,177.00 554.66,176.74 555.67,176.42 C557.34,175.89 557.34,175.97 555.56,177.42 Z" fill="rgb(58,27,149)"/>
<path d="M 370.96 859.47 C371.14,859.56 371.32,859.65 371.50,859.74 C381.84,864.91 382.96,864.36 373.00,859.00 C367.77,856.19 359.69,851.33 355.02,848.19 C345.06,841.50 329.38,826.28 322.71,816.83 C316.60,808.15 309.59,793.69 306.32,783.00 C304.89,778.33 303.15,773.89 302.46,773.13 C301.77,772.38 295.87,770.30 289.35,768.51 C275.47,764.70 269.80,762.51 261.21,757.63 C232.33,741.24 211.23,716.67 200.55,687.00 C195.32,672.45 193.92,664.55 193.39,646.50 C193.11,637.15 192.67,628.46 192.41,627.19 C192.15,625.92 190.20,623.00 188.09,620.69 C170.91,601.94 158.45,577.53 152.50,551.00 C149.91,539.47 149.30,508.07 151.45,496.50 C156.66,468.31 166.45,447.03 184.63,424.38 L 193.76 413.00 L 194.28 391.25 C194.84,368.35 195.48,364.34 201.30,347.50 C206.36,332.85 216.40,315.89 227.74,302.85 C243.13,285.15 269.74,268.08 291.67,261.83 C295.98,260.60 300.01,259.23 300.63,258.78 C301.24,258.33 302.03,256.28 302.36,254.23 C303.21,249.11 313.77,227.91 319.40,220.04 C337.77,194.36 365.23,174.60 395.01,165.64 C411.13,160.79 420.20,159.67 438.78,160.25 C466.04,161.08 483.53,166.89 506.28,182.69 C510.91,185.90 514.55,187.79 515.28,187.34 C515.95,186.94 519.24,184.46 522.59,181.84 C530.82,175.39 546.30,167.80 559.02,163.97 C568.49,161.12 571.16,160.77 586.71,160.28 C600.53,159.86 605.85,160.10 613.71,161.51 C640.37,166.29 661.44,176.24 684.42,194.89 C700.55,207.98 714.72,228.88 721.45,249.50 C722.89,253.90 724.38,257.98 724.78,258.56 C725.18,259.14 730.67,261.31 737.00,263.38 C769.91,274.16 798.97,297.45 815.03,325.90 C820.62,335.80 826.29,350.45 828.92,361.80 C831.42,372.55 832.94,391.62 832.31,404.28 L 831.87 413.05 L 838.11 420.28 C867.01,453.71 879.76,497.78 873.47,542.54 C870.85,561.21 867.34,572.39 858.86,589.08 C853.09,600.43 847.80,608.23 838.98,618.37 L 832.50 625.82 L 832.46 642.66 C832.41,661.92 830.73,670.89 823.86,688.64 C814.75,712.18 794.98,737.18 774.60,750.93 C760.09,760.73 742.53,768.05 727.79,770.47 C723.40,771.19 720.34,774.61 719.40,779.85 C717.47,790.72 707.16,810.66 696.76,823.64 C679.75,844.90 655.53,860.34 626.00,868.78 C616.98,871.36 615.44,871.50 595.50,871.44 C575.96,871.38 573.80,871.19 564.50,868.69 C550.15,864.83 532.69,855.89 521.28,846.55 C515.72,842.00 511.14,839.00 509.75,839.00 C507.09,839.00 504.21,840.80 498.25,846.19 C487.91,855.55 470.94,864.34 456.05,868.05 C437.83,872.58 415.02,872.40 397.00,867.58 C382.68,863.75 382.16,863.64 384.29,865.00 C386.82,866.62 399.44,870.16 407.95,871.72 C401.25,870.89 395.54,869.21 385.69,865.84 C380.92,864.20 375.95,862.04 370.96,859.47 ZM 606.54 861.90 C624.19,860.13 637.55,856.09 652.88,847.90 C673.44,836.91 690.09,820.43 701.27,800.00 C704.99,793.19 710.25,779.08 711.39,772.85 C712.76,765.29 716.70,762.78 733.00,759.08 C759.66,753.01 785.72,734.31 802.31,709.34 C817.43,686.58 823.36,666.34 822.67,639.81 C822.47,631.94 822.65,624.60 823.07,623.50 C823.50,622.40 826.87,618.12 830.56,614.00 C847.27,595.35 859.08,571.07 863.64,546.00 C866.21,531.88 865.96,505.78 863.13,492.31 C858.02,468.03 849.49,450.37 832.57,429.08 C828.10,423.46 825.65,420.52 824.29,417.14 C822.53,412.76 822.61,407.64 822.53,395.00 C822.42,378.19 822.08,374.19 820.06,366.00 C812.23,334.25 796.02,310.24 769.30,290.80 C760.38,284.32 740.56,274.68 730.50,271.95 C716.73,268.20 715.27,266.90 712.58,256.00 C710.32,246.86 701.87,229.81 695.35,221.28 C683.50,205.77 666.85,192.44 647.50,182.97 C634.73,176.73 622.76,173.27 606.84,171.21 C595.95,169.81 592.44,169.75 581.87,170.81 C575.10,171.49 569.11,172.49 568.56,173.04 C567.90,173.70 568.72,173.78 571.03,173.27 C572.94,172.85 582.38,172.50 592.00,172.50 C605.44,172.50 611.36,172.93 617.50,174.34 C629.10,177.01 640.23,180.96 642.31,183.15 C643.30,184.19 644.54,184.78 645.06,184.46 C645.58,184.14 646.00,184.36 646.00,184.94 C646.00,185.52 646.34,185.95 646.75,185.88 C649.00,185.53 651.04,186.13 650.51,186.99 C650.17,187.53 650.51,187.74 651.26,187.45 C652.02,187.16 653.81,188.02 655.25,189.36 C656.70,190.70 658.09,191.57 658.36,191.31 C658.63,191.04 660.45,191.91 662.42,193.25 C664.38,194.58 665.76,195.90 665.49,196.18 C665.21,196.45 668.56,199.69 672.93,203.38 C677.30,207.06 680.88,210.85 680.89,211.79 C680.90,212.73 681.32,216.20 681.81,219.50 C682.69,225.36 682.73,225.42 683.52,222.05 L 684.33 218.59 L 685.52 222.05 C686.67,225.42 686.64,229.62 685.37,239.25 C684.75,243.94 683.80,245.10 682.40,242.85 C681.93,242.08 682.13,241.96 683.00,242.50 C683.87,243.04 684.07,242.92 683.60,242.15 C683.20,241.52 682.35,240.99 681.69,240.97 C681.04,240.96 678.96,238.67 677.07,235.89 C672.23,228.76 659.58,217.34 650.35,211.76 C641.20,206.24 628.41,200.84 617.33,197.83 C606.45,194.86 581.93,194.62 571.20,197.37 C567.19,198.40 564.10,199.44 564.35,199.68 C564.59,199.92 567.42,199.40 570.64,198.53 C578.95,196.28 595.82,195.51 606.29,196.91 C611.12,197.56 619.18,199.42 624.18,201.06 C660.79,213.02 683.14,236.61 691.98,272.60 C693.53,278.89 695.54,285.17 696.45,286.56 C698.91,290.32 703.43,292.67 710.86,294.05 C727.49,297.14 744.57,304.95 758.85,316.00 C775.81,329.11 785.61,344.08 792.26,367.00 C794.22,373.75 794.44,376.90 794.47,398.50 C794.51,417.25 794.82,423.05 795.93,425.00 C796.70,426.37 800.78,431.10 804.99,435.50 C814.99,445.95 820.76,453.90 825.78,464.15 C833.92,480.78 837.26,496.00 837.26,516.50 C837.26,537.21 833.20,554.68 824.25,572.50 C819.87,581.22 816.84,585.62 809.07,594.50 C805.70,598.35 801.85,603.75 800.51,606.50 C798.19,611.25 798.07,612.36 798.21,628.50 C798.37,647.83 797.11,655.58 791.36,670.50 C788.33,678.37 782.75,688.63 778.78,693.63 C774.06,699.57 763.49,709.93 758.00,713.97 C745.16,723.44 731.71,728.90 713.83,731.91 C694.54,735.15 692.28,737.30 688.41,756.13 C684.08,777.13 675.06,793.41 660.19,807.01 C646.66,819.39 631.00,827.26 612.00,831.22 C599.53,833.83 581.03,833.28 570.50,829.99 C567.25,828.97 564.05,827.72 560.98,826.28 C562.05,826.73 563.14,827.16 564.27,827.58 C570.56,829.92 572.00,830.30 572.00,829.63 C572.00,829.43 569.41,828.32 566.25,827.17 C559.95,824.87 550.85,819.49 551.22,818.27 C551.34,817.85 550.63,816.28 549.64,814.80 C548.65,813.31 548.02,811.29 548.24,810.30 C548.46,809.31 547.75,806.70 546.65,804.50 C545.77,802.75 545.10,800.30 544.75,797.71 C545.39,802.21 547.09,806.19 549.70,809.16 C550.70,810.31 552.23,810.70 554.58,810.41 C556.49,810.17 558.00,810.43 558.00,810.99 C558.00,811.55 559.07,812.00 560.37,812.00 C561.68,812.00 566.16,813.12 570.34,814.48 C583.39,818.74 597.79,819.41 613.00,816.47 C626.72,813.82 640.50,806.95 650.54,797.75 C657.95,790.95 670.04,773.39 672.59,765.73 C673.75,762.25 674.92,760.60 676.75,759.91 C679.25,758.95 684.95,753.27 684.98,751.69 C684.99,751.25 685.44,751.15 685.97,751.48 C686.51,751.82 687.47,750.03 688.10,747.51 C688.84,744.56 690.83,741.18 693.69,738.00 C697.33,733.95 698.07,732.47 697.82,729.81 C697.55,727.11 696.95,726.41 694.22,725.63 C687.43,723.69 692.98,720.39 706.40,718.39 C711.40,717.64 717.10,716.82 719.06,716.57 C724.26,715.89 734.68,711.91 742.10,707.76 C749.62,703.55 765.20,688.58 770.86,680.12 C772.92,677.03 776.77,669.63 779.40,663.69 C783.58,654.21 784.86,649.64 787.66,634.16 C787.98,632.40 788.51,632.00 789.79,632.53 C790.73,632.92 792.47,633.36 793.65,633.52 C795.72,633.79 795.81,633.39 796.19,622.15 C796.65,608.53 797.72,605.81 807.22,594.32 C812.52,587.91 813.02,586.91 811.97,584.95 C811.18,583.47 811.16,582.98 811.90,583.44 C812.51,583.81 813.00,583.64 813.00,583.06 C813.00,581.18 810.42,581.93 808.00,584.50 C806.71,585.88 804.80,587.00 803.76,587.00 C801.27,587.00 801.80,585.43 808.24,573.77 C821.86,549.10 825.44,537.14 825.38,516.50 C825.35,506.10 824.88,501.80 823.03,495.00 C820.07,484.16 814.47,472.21 808.63,464.28 C801.92,455.17 787.59,441.00 785.09,441.00 C782.32,441.00 782.45,442.56 785.54,446.23 C788.57,449.83 788.07,450.93 784.49,448.58 C781.38,446.55 779.71,442.59 780.48,439.08 C780.83,437.49 780.27,434.98 779.02,432.54 C776.31,427.23 776.40,421.18 779.25,416.97 C780.49,415.15 781.97,413.50 782.54,413.31 C783.12,413.12 784.62,415.11 785.87,417.74 C789.74,425.79 790.95,427.29 792.51,425.99 C793.47,425.20 793.63,424.16 793.03,422.59 C792.56,421.35 792.42,412.27 792.72,402.42 C793.06,391.24 792.83,381.79 792.13,377.30 C790.75,368.55 786.28,354.00 784.96,354.00 C783.66,354.00 783.75,355.03 785.49,359.97 C786.54,362.94 786.95,367.88 786.86,376.50 C786.69,393.16 784.67,396.13 782.09,383.50 C777.18,359.45 764.95,340.79 746.00,328.48 C727.50,316.46 700.20,307.54 687.64,309.43 C683.77,310.01 682.99,310.49 682.94,312.31 C682.88,314.34 682.73,316.41 682.51,318.49 C683.12,312.68 682.57,310.12 680.73,307.68 C679.42,305.93 676.65,300.90 674.57,296.50 C667.23,280.93 660.70,274.85 647.89,271.63 C639.20,269.46 633.07,269.57 622.94,272.12 C613.80,274.42 610.08,275.99 608.05,278.43 C607.34,279.30 606.02,280.01 605.13,280.02 C604.23,280.02 601.92,281.43 600.00,283.14 C598.08,284.85 595.48,286.92 594.24,287.75 C593.26,288.39 590.60,291.64 587.57,295.68 C590.58,291.43 593.05,287.88 593.49,287.15 C597.97,279.67 601.26,275.00 602.05,275.00 C602.57,275.00 603.00,274.33 603.00,273.50 C603.00,272.67 603.34,271.99 603.75,271.99 C604.65,271.97 608.00,265.17 608.39,262.58 C608.53,261.56 609.55,259.78 610.65,258.62 C613.83,255.24 614.16,253.30 611.68,252.48 C607.75,251.18 605.65,250.96 592.57,250.48 C582.18,250.10 579.19,250.30 577.35,251.50 C574.76,253.20 573.62,253.43 574.45,252.09 C575.28,250.74 572.87,251.34 570.00,253.19 C568.62,254.08 566.05,255.11 564.28,255.47 C562.11,255.93 560.09,257.47 558.08,260.21 C556.44,262.44 554.09,264.77 552.87,265.39 C551.65,266.00 549.23,268.52 547.49,271.00 C545.76,273.48 543.47,275.66 542.42,275.87 C541.36,276.07 540.18,276.74 539.79,277.37 C538.71,279.07 538.82,331.31 539.75,344.50 C539.49,341.90 539.25,338.54 539.09,335.07 C538.50,322.69 538.49,322.63 535.87,321.94 C534.42,321.55 532.63,321.61 531.89,322.07 C531.09,322.56 530.25,322.41 529.79,321.70 C529.37,321.04 529.02,332.42 529.01,347.00 C528.99,378.66 527.98,421.45 527.22,425.04 C527.38,423.14 527.78,414.13 528.19,403.00 C528.67,390.08 528.83,348.00 528.53,309.50 C528.07,250.04 528.21,238.47 529.46,232.64 C532.25,219.70 538.67,212.47 554.50,204.41 C559.45,201.89 562.38,200.14 561.00,200.52 C556.26,201.84 544.95,208.45 539.93,212.84 C534.84,217.29 529.03,226.03 529.01,229.26 C529.00,230.23 528.10,231.79 527.00,232.73 C525.90,233.67 525.00,235.33 525.00,236.42 C525.00,237.83 524.69,238.09 523.93,237.33 C523.34,236.74 522.76,235.59 522.64,234.78 C522.52,233.96 521.32,231.99 519.96,230.39 C516.03,225.77 512.82,226.48 506.83,233.30 C504.08,236.44 501.41,238.76 500.91,238.45 C500.41,238.14 499.94,238.70 499.86,239.69 C499.79,240.69 499.37,237.80 498.93,233.28 C498.50,228.77 497.62,224.27 496.99,223.28 C495.95,221.65 495.91,221.67 496.51,223.50 C496.87,224.60 497.15,269.38 497.13,323.00 C497.11,380.24 497.46,419.67 497.98,418.50 C498.31,417.75 498.61,417.33 498.78,417.34 C498.61,417.34 498.32,417.76 498.00,418.50 C497.51,419.65 497.11,397.48 497.07,366.30 C497.01,322.97 496.74,311.94 495.70,311.30 C494.99,310.86 493.11,308.25 491.54,305.50 C489.96,302.75 488.36,300.27 487.99,300.00 C487.61,299.73 487.00,297.58 486.64,295.24 C485.91,290.59 481.21,283.57 475.20,278.18 C469.37,272.96 457.43,264.00 456.29,264.00 C455.72,264.00 453.13,263.06 450.54,261.91 C444.07,259.05 429.36,258.19 422.50,260.27 C414.02,262.84 402.83,270.35 397.66,276.94 C394.52,280.95 387.00,292.61 387.00,293.48 C387.00,294.07 382.57,301.04 380.00,304.49 C379.17,305.59 375.67,309.32 372.22,312.76 L 365.94 319.02 L 360.57 335.26 C363.60,325.72 365.69,318.38 365.45,317.76 C364.62,315.64 357.73,311.70 355.04,311.80 C339.86,312.38 321.31,315.32 319.84,317.39 C319.48,317.90 317.00,318.40 314.34,318.49 C304.73,318.82 286.90,329.92 271.90,344.91 C264.09,352.72 260.88,357.15 255.62,367.44 C252.82,372.89 252.55,374.36 252.17,385.64 C251.77,397.64 253.14,407.68 256.17,415.00 C258.31,420.16 260.64,430.67 260.27,433.46 C259.91,436.15 250.68,446.95 248.71,446.99 C248.27,446.99 246.69,448.13 245.21,449.51 C243.72,450.89 241.60,452.31 240.50,452.66 C237.69,453.55 224.00,463.80 224.00,465.01 C224.00,465.56 222.82,467.02 221.38,468.26 C217.59,471.49 210.89,480.73 208.30,486.27 C203.08,497.45 198.00,519.26 199.50,524.00 C200.01,525.60 200.51,525.80 202.00,525.00 C204.82,523.49 208.99,523.80 209.66,525.56 C210.02,526.49 209.20,528.22 207.63,529.86 C206.18,531.37 205.00,532.92 205.00,533.30 C205.00,534.46 208.51,534.09 209.80,532.80 C210.69,531.91 211.00,531.90 211.00,532.76 C211.00,534.40 207.66,536.00 204.23,536.00 L 201.33 536.00 L 202.07 541.25 C203.65,552.49 209.72,565.70 220.70,581.81 C225.53,588.90 226.00,591.40 222.81,593.10 C218.51,595.41 218.02,596.33 220.02,598.50 C221.03,599.60 223.24,603.13 224.93,606.35 C226.62,609.57 228.00,611.92 228.00,611.57 C228.00,611.22 228.90,611.41 230.00,612.00 C231.31,612.70 232.00,614.09 232.00,616.04 C232.00,620.05 233.79,619.82 234.19,615.75 C234.61,611.31 237.20,611.47 238.16,616.00 C238.58,617.92 239.20,624.90 239.55,631.50 C240.33,645.97 243.54,659.85 248.49,670.15 C255.18,684.04 269.30,700.60 275.89,702.28 C277.69,702.74 278.00,702.60 277.14,701.74 C276.51,701.11 276.00,700.24 276.00,699.80 C276.00,698.27 278.23,699.01 281.23,701.54 C284.09,703.95 284.35,703.99 286.13,702.38 C288.55,700.19 289.85,701.41 287.66,703.82 C285.37,706.35 285.58,708.69 288.25,710.39 C291.85,712.70 306.73,716.69 316.43,717.96 C328.51,719.54 336.00,722.87 336.00,726.67 C336.00,727.69 335.02,727.87 332.00,727.38 C328.46,726.82 328.00,726.97 328.00,728.74 C328.00,730.60 330.96,735.22 333.62,737.50 C334.26,738.05 335.29,740.12 335.92,742.10 C336.61,744.28 338.04,746.15 339.54,746.83 C344.83,749.25 348.84,754.18 352.54,762.84 C360.71,781.92 376.46,798.93 394.24,807.86 C401.69,811.60 405.64,813.01 408.66,813.01 C412.17,813.00 412.74,812.72 412.34,811.19 C412.08,810.20 412.79,808.29 413.92,806.94 L 415.96 804.50 L 415.34 807.85 C414.30,813.39 419.29,814.94 423.50,810.40 L 425.91 807.80 L 426.57 810.42 C426.93,811.86 427.00,813.90 426.72,814.96 C426.30,816.57 426.83,816.95 429.86,817.25 C435.19,817.77 441.41,817.08 451.00,814.89 C455.67,813.82 460.85,812.31 462.50,811.54 C464.15,810.77 467.70,809.21 470.38,808.07 C477.00,805.26 485.54,796.42 487.06,790.80 C487.39,789.57 487.60,788.06 487.68,785.94 C487.86,796.38 487.09,801.27 485.15,805.24 C481.13,813.46 470.14,821.29 455.03,826.69 C451.31,828.01 450.01,828.75 452.00,828.40 C454.27,828.00 456.54,827.41 458.80,826.63 C454.30,828.30 449.46,829.61 444.35,830.50 C442.46,830.83 440.57,831.09 438.68,831.30 C439.21,831.21 439.65,831.11 440.00,831.00 C441.57,830.50 438.04,830.17 430.50,830.11 C422.42,830.06 418.99,830.35 420.00,831.00 C420.31,831.20 421.03,831.37 422.01,831.50 C410.13,830.50 398.25,827.07 386.50,821.21 C375.92,815.94 357.21,801.08 358.51,798.98 C358.77,798.56 357.85,797.47 356.46,796.57 C355.07,795.66 354.19,794.50 354.50,794.01 C354.80,793.51 354.13,792.61 353.00,792.00 C351.87,791.39 351.21,790.47 351.53,789.95 C351.85,789.43 351.61,789.00 351.00,789.00 C350.39,789.00 350.16,788.55 350.50,788.00 C350.84,787.45 350.61,787.00 350.00,787.00 C349.39,787.00 349.13,786.60 349.44,786.10 C349.74,785.61 349.29,784.94 348.43,784.61 C347.57,784.28 347.15,783.56 347.50,783.01 C347.84,782.45 347.61,782.00 347.00,782.00 C346.39,782.00 346.16,781.55 346.50,781.00 C346.84,780.45 346.57,780.00 345.89,780.00 C345.22,780.00 344.95,779.72 345.29,779.38 C345.63,779.04 345.23,778.08 344.39,777.25 C343.56,776.42 343.12,775.13 343.41,774.37 C343.70,773.62 343.47,773.00 342.91,773.00 C342.34,773.00 342.16,772.55 342.50,772.00 C342.84,771.45 342.66,771.00 342.09,771.00 C341.53,771.00 341.32,770.33 341.64,769.50 C341.95,768.67 341.73,768.00 341.14,768.00 C340.55,768.00 340.32,767.33 340.64,766.50 C340.95,765.67 340.69,765.00 340.04,765.00 C339.32,765.00 339.11,764.22 339.50,763.00 C339.88,761.80 339.68,761.00 339.00,761.00 C338.32,761.00 338.12,760.20 338.50,759.00 C338.85,757.90 338.76,757.00 338.30,757.00 C337.83,757.00 336.94,754.26 336.30,750.91 C333.96,738.58 328.15,733.96 312.50,731.95 C294.21,729.60 276.53,722.21 262.65,711.09 C255.82,705.62 247.12,697.00 248.43,697.00 C248.89,697.00 248.08,696.06 246.63,694.92 C245.17,693.78 244.24,692.42 244.55,691.91 C244.87,691.40 244.43,690.72 243.57,690.39 C242.71,690.06 242.26,689.38 242.57,688.89 C242.88,688.39 242.43,687.72 241.57,687.39 C240.71,687.06 240.26,686.39 240.56,685.90 C240.87,685.40 240.65,685.00 240.08,685.00 C238.79,685.00 235.86,679.47 236.71,678.63 C237.05,678.28 236.78,678.00 236.11,678.00 C235.43,678.00 235.16,677.55 235.50,677.00 C235.84,676.45 235.69,676.00 235.17,676.00 C234.01,676.00 228.78,662.16 229.51,660.99 C229.80,660.52 229.56,659.84 228.98,659.48 C228.39,659.13 228.19,657.97 228.53,656.92 C228.88,655.80 228.66,655.00 228.00,655.00 C227.32,655.00 227.12,654.20 227.50,653.00 C227.89,651.77 227.68,651.00 226.96,651.00 C226.15,651.00 225.99,649.89 226.43,647.50 C226.84,645.31 226.70,644.00 226.05,644.00 C225.36,644.00 225.00,638.25 225.00,627.32 C225.00,607.73 224.74,606.93 214.56,594.68 C202.26,579.89 195.46,566.99 190.42,548.87 C188.29,541.21 187.72,536.56 187.28,523.41 C186.48,499.04 189.98,482.20 199.63,464.00 C205.14,453.63 209.75,447.55 221.66,434.95 C227.68,428.58 230.88,425.40 232.58,421.55 C234.52,417.19 234.53,411.97 234.56,400.27 C234.56,399.39 234.57,398.46 234.57,397.50 C234.65,374.64 235.90,366.59 241.66,352.17 C253.20,323.28 278.94,302.43 313.48,293.98 C320.62,292.24 327.67,290.19 329.14,289.43 C333.27,287.29 335.77,283.42 337.06,277.19 C342.51,250.69 353.94,232.35 376.00,214.67 C378.65,212.55 378.30,212.68 374.56,215.19 C368.28,219.39 357.14,230.68 351.39,238.66 C346.48,245.48 341.42,255.94 338.05,266.25 C336.83,269.96 335.45,273.00 334.98,273.00 C334.51,273.00 334.38,274.58 334.69,276.50 C335.09,278.92 334.88,280.00 334.02,280.00 C333.34,280.00 333.03,280.65 333.34,281.44 C334.15,283.56 330.68,287.41 326.32,289.22 C324.22,290.09 318.23,291.79 313.00,293.00 C296.44,296.82 284.10,302.61 269.65,313.32 C264.94,316.81 261.99,318.48 262.40,317.41 C263.04,315.72 262.97,315.71 261.24,317.29 C259.48,318.88 259.32,318.78 258.11,315.42 C256.46,310.87 255.13,297.04 256.26,296.34 C256.74,296.04 256.90,295.18 256.61,294.43 C255.96,292.74 261.55,288.60 263.15,289.59 C263.80,290.00 264.04,289.88 263.69,289.31 C262.30,287.07 292.25,273.00 303.60,270.57 C308.52,269.52 312.54,264.45 314.95,256.25 C323.53,227.11 345.39,202.08 376.49,185.78 C387.06,180.25 387.23,179.36 376.73,184.61 C360.13,192.90 343.02,206.62 332.15,220.34 C323.09,231.79 315.22,247.85 312.51,260.40 C311.53,264.94 306.95,268.45 299.32,270.50 C257.89,281.66 222.61,314.48 210.05,353.54 C205.41,367.97 204.01,378.39 204.00,398.50 C204.00,399.88 204.00,401.16 204.00,402.35 L 204.00 402.35 C204.02,410.30 204.03,414.14 202.76,417.50 C201.39,421.13 198.50,424.19 192.50,431.30 C162.04,467.36 152.22,514.36 165.13,562.26 C166.28,566.53 167.62,570.27 168.11,570.57 C168.60,570.87 169.00,571.92 169.00,572.90 C169.00,575.38 178.07,592.95 182.62,599.27 C184.69,602.14 189.33,607.79 192.94,611.82 C197.86,617.31 200.38,619.93 201.66,623.06 C203.01,626.33 203.00,630.16 203.00,638.38 C203.00,639.10 202.99,639.85 202.99,640.64 C203.00,664.11 206.32,679.12 215.53,697.29 C224.28,714.57 234.81,727.25 249.84,738.61 C263.98,749.29 276.38,754.91 300.43,761.53 C308.57,763.77 312.38,767.70 314.00,775.53 C316.95,789.76 328.22,809.61 341.31,823.62 C359.82,843.45 385.85,856.85 413.37,860.71 C423.48,862.13 426.95,862.21 436.87,861.21 C461.89,858.70 480.61,850.38 497.05,834.47 C504.79,826.98 509.10,824.94 513.95,826.48 C515.12,826.85 519.09,830.31 522.79,834.17 C537.17,849.19 558.22,859.14 581.50,861.91 C591.69,863.12 594.47,863.12 606.54,861.90 ZM 384.00 223.12 C384.00,224.52 386.01,224.17 392.98,221.55 C407.69,216.02 421.43,213.67 446.27,212.44 C453.84,212.06 460.27,211.37 460.57,210.89 C461.67,209.11 454.45,206.13 446.17,204.95 C431.58,202.88 413.34,205.49 400.13,211.54 C394.32,214.20 384.00,221.61 384.00,223.12 ZM 832.40 544.77 C836.20,527.60 836.83,514.06 834.54,499.00 C833.09,489.46 829.21,475.76 829.02,479.50 C828.97,480.60 828.79,495.45 828.63,512.50 C828.43,533.65 827.94,544.72 827.09,547.34 C825.52,552.22 826.23,554.48 828.88,553.06 C830.20,552.36 831.29,549.79 832.40,544.77 ZM 549.00 218.52 C549.00,220.41 552.20,220.42 558.57,218.56 C565.26,216.61 583.93,213.29 592.50,212.53 C606.01,211.34 608.38,210.01 600.75,207.90 C593.27,205.83 576.56,206.31 567.43,208.86 C558.33,211.41 549.00,216.30 549.00,218.52 ZM 302.25 305.76 C302.22,305.84 302.19,305.92 302.17,305.99 C302.05,306.33 301.96,306.58 302.05,306.72 C302.28,307.11 303.76,306.73 309.21,305.34 C309.65,305.23 310.11,305.11 310.59,304.99 C321.88,302.11 328.00,299.98 328.00,298.92 C328.00,297.59 324.15,297.78 315.86,299.53 C308.37,301.10 302.97,303.58 302.25,305.76 ZM 700.00 288.57 C700.00,288.24 700.55,287.10 701.21,286.03 C702.90,283.33 701.43,282.30 699.01,284.49 C697.26,286.07 697.00,286.10 697.00,284.71 C697.00,283.84 697.45,282.84 698.00,282.50 C699.69,281.45 699.11,280.00 697.00,280.00 C695.90,280.00 695.00,279.52 695.00,278.94 C695.00,278.33 696.58,278.01 698.75,278.19 C701.28,278.40 702.50,278.99 702.50,280.00 C702.50,280.83 703.08,282.11 703.79,282.87 C704.86,283.99 704.84,284.61 703.71,286.31 C702.37,288.33 700.00,289.77 700.00,288.57 ZM 826.46 560.94 C825.74,559.78 823.01,562.31 822.97,564.18 C822.95,564.91 822.34,566.29 821.61,567.25 C820.86,568.24 820.51,570.20 820.81,571.75 C821.31,574.28 821.58,574.00 824.20,568.20 C825.77,564.73 826.79,561.47 826.46,560.94 ZM 205.51 528.99 C207.61,526.67 206.71,525.06 204.20,526.64 C202.34,527.81 201.30,531.00 202.77,531.00 C203.28,531.00 204.51,530.10 205.51,528.99 ZM 466.18 823.42 C471.87,820.42 477.44,816.26 482.76,811.00 C489.36,804.48 494.58,793.98 495.96,784.44 C493.52,801.27 482.65,815.11 466.18,823.42 ZM 276.00 697.69 C276.00,697.52 277.42,696.33 279.16,695.04 L 282.31 692.71 L 280.41 695.32 C278.86,697.45 276.00,698.98 276.00,697.69 ZM 151.98 554.95 C156.97,575.96 166.09,595.00 179.24,611.86 C181.21,614.38 182.88,616.50 184.29,618.31 C183.56,617.41 182.76,616.44 181.89,615.36 C166.90,597.04 157.39,577.86 151.98,554.95 ZM 555.56 177.42 C557.34,175.97 557.34,175.89 555.67,176.42 C554.66,176.74 553.42,177.00 552.92,177.00 C552.41,177.00 552.00,177.45 552.00,178.00 C552.00,179.45 553.34,179.23 555.56,177.42 ZM 148.77 507.30 C148.63,510.76 148.59,514.95 148.60,520.50 C148.60,525.13 148.63,528.76 148.71,531.82 C148.24,523.75 148.26,515.11 148.77,507.30 ZM 541.22 812.48 C538.59,809.74 536.47,806.89 535.01,804.03 C532.98,800.04 531.64,797.38 530.74,793.73 C530.79,793.90 530.85,794.06 530.90,794.22 C533.37,801.38 536.76,807.42 541.22,812.48 ZM 677.77 339.00 C677.15,340.67 676.47,342.27 675.76,343.76 C674.64,346.08 672.61,349.07 670.01,352.34 C673.34,347.96 675.88,343.59 677.77,339.00 ZM 440.96 872.22 C445.38,871.90 449.28,871.47 451.91,870.94 C451.61,871.02 451.31,871.09 451.00,871.17 C449.04,871.64 445.63,872.00 440.96,872.22 ZM 190.97 627.58 C191.41,628.46 191.63,629.20 191.71,629.94 C191.82,630.90 191.71,631.88 191.55,633.22 C191.49,633.76 191.42,634.36 191.36,635.04 C191.37,634.89 191.39,634.73 191.40,634.59 C191.62,632.29 191.76,630.77 191.50,629.32 C191.39,628.75 191.22,628.18 190.97,627.58 ZM 527.13 425.28 C527.12,425.29 527.10,425.29 527.09,425.27 C526.76,424.81 525.38,424.53 524.00,424.63 C523.23,424.69 522.29,424.69 521.25,424.64 C522.41,424.68 523.44,424.67 524.25,424.58 C525.67,424.42 526.92,424.73 527.13,425.28 ZM 540.06 347.22 L 540.07 347.25 L 540.80 349.96 C540.69,349.80 540.59,349.58 540.47,349.32 C540.35,349.03 540.20,348.29 540.06,347.22 ZM 341.26 839.07 C345.68,843.00 350.62,846.85 355.73,850.35 C350.62,846.86 345.72,843.06 341.26,839.07 ZM 528.89 772.39 C528.72,765.99 528.59,757.84 528.43,747.17 C528.60,758.05 528.73,766.20 528.89,772.39 ZM 485.24 748.47 C484.99,747.23 484.69,746.24 484.32,745.37 C484.70,746.24 484.99,747.24 485.24,748.47 Z" fill="rgb(75,77,217)"/>
<path d="M 554.50 338.72 C561.81,332.24 566.95,325.69 566.98,322.82 C566.99,321.89 568.01,320.81 569.25,320.42 C571.83,319.60 573.24,318.01 576.03,312.77 C577.13,310.72 581.28,304.49 585.26,298.92 C586.05,297.82 586.83,296.73 587.57,295.68 C590.60,291.64 593.26,288.39 594.24,287.75 C595.48,286.92 598.08,284.85 600.00,283.14 C601.92,281.43 604.23,280.02 605.13,280.02 C606.02,280.01 607.34,279.30 608.05,278.43 C610.08,275.99 613.80,274.42 622.94,272.12 C633.07,269.57 639.20,269.46 647.89,271.63 C660.70,274.85 667.23,280.93 674.57,296.50 C676.65,300.90 679.42,305.93 680.73,307.68 C682.57,310.12 683.12,312.68 682.51,318.49 L 682.51 318.49 C681.74,325.59 680.07,332.85 677.77,339.00 C675.88,343.59 673.34,347.96 670.01,352.34 C666.04,357.31 660.74,362.92 655.30,367.77 C640.66,380.82 638.03,383.69 637.20,387.59 C636.60,390.41 635.88,391.46 634.63,391.35 C633.62,391.27 631.82,392.83 630.34,395.07 C628.20,398.30 627.80,400.02 627.88,405.63 C627.94,409.60 628.56,413.21 629.42,414.51 C630.21,415.72 631.17,418.38 631.55,420.41 C632.02,422.95 632.67,423.96 633.60,423.60 C634.34,423.32 635.30,423.64 635.72,424.32 C636.89,426.18 645.20,432.00 646.70,432.00 C647.41,432.00 648.00,431.55 648.00,431.00 C648.00,430.45 649.01,429.99 650.25,429.98 C654.15,429.96 660.23,427.35 662.07,424.90 C663.08,423.56 663.70,421.37 663.50,419.80 C663.18,417.29 663.40,417.09 666.09,417.40 C668.61,417.69 669.53,417.05 672.65,412.80 C677.29,406.47 687.97,398.38 694.07,396.57 C713.10,390.92 726.92,392.51 741.55,402.04 C748.35,406.46 750.40,408.89 754.92,417.84 C765.01,437.83 761.53,461.65 746.08,478.25 C744.16,480.31 742.25,482.00 741.83,482.00 C741.40,482.00 739.13,483.34 736.78,484.99 C734.41,486.64 727.59,489.47 721.49,491.33 C715.43,493.18 709.58,495.18 708.49,495.78 C707.39,496.38 704.41,497.86 701.85,499.06 C699.29,500.27 695.90,502.66 694.30,504.38 C690.99,507.94 686.65,514.77 686.34,516.90 C686.22,517.69 685.27,519.50 684.23,520.92 C683.19,522.34 681.49,525.75 680.46,528.50 C679.43,531.25 677.68,535.08 676.58,537.00 C675.04,539.69 674.95,540.20 676.19,539.21 C677.51,538.15 677.90,538.15 678.33,539.21 C678.68,540.07 679.83,539.37 681.78,537.09 C684.06,534.43 685.43,533.71 688.00,533.78 C691.96,533.89 693.75,535.48 694.57,539.60 C695.09,542.20 694.70,543.08 692.02,545.33 C688.64,548.18 684.27,548.80 682.04,546.75 C681.29,546.06 681.71,547.00 682.97,548.84 C685.17,552.05 685.46,552.16 689.88,551.50 C692.42,551.12 695.01,550.39 695.64,549.88 C697.96,547.97 712.20,547.07 718.00,548.47 C737.02,553.06 742.82,555.80 749.75,563.46 C757.14,571.64 759.29,577.49 759.79,590.82 C760.32,604.81 759.05,608.72 751.35,616.78 L 745.88 622.50 L 748.96 617.83 C754.36,609.62 755.35,606.28 755.41,596.00 C755.45,588.18 755.06,585.62 753.20,581.56 C750.32,575.25 746.87,570.74 742.75,567.88 C740.41,566.26 740.96,567.10 744.72,570.93 C749.21,575.48 751.89,579.92 753.22,585.38 C752.75,584.01 752.08,582.54 751.15,580.65 C746.91,572.04 740.76,566.63 732.25,563.99 C724.33,561.55 718.12,561.51 711.34,563.85 C703.30,566.63 697.60,571.54 693.80,578.95 C690.58,585.25 690.50,585.71 690.48,598.16 L 690.47 610.93 L 677.48 624.36 C670.34,631.75 662.92,638.63 661.00,639.65 C657.83,641.33 654.00,641.55 620.41,642.00 L 583.32 642.50 L 577.41 646.16 C570.10,650.68 566.59,654.90 564.00,662.26 C562.17,667.47 562.00,670.51 562.00,698.46 L 562.00 728.97 L 558.25 730.54 C548.91,734.43 543.03,744.12 543.01,755.62 C542.99,768.91 548.24,777.63 559.31,782.62 C555.23,781.03 551.33,778.43 548.14,775.06 L 544.78 771.50 L 547.52 775.36 C549.74,778.48 550.00,779.38 548.88,780.09 C548.12,780.56 546.75,780.72 545.83,780.44 C543.79,779.80 542.55,783.02 543.59,786.25 C543.99,787.49 544.39,791.20 544.48,794.50 C544.51,795.59 544.60,796.66 544.75,797.71 L 544.75 797.71 C545.10,800.31 545.78,802.75 546.65,804.50 C547.75,806.70 548.46,809.31 548.24,810.30 C548.02,811.29 548.65,813.31 549.64,814.80 C550.63,816.28 551.34,817.85 551.22,818.27 C550.85,819.49 559.95,824.87 566.25,827.17 C569.41,828.32 572.00,829.43 572.00,829.63 C572.00,830.30 570.56,829.92 564.27,827.58 C563.14,827.16 562.05,826.73 560.98,826.28 C553.23,822.62 546.28,817.76 541.22,812.48 C536.76,807.42 533.37,801.38 530.90,794.22 C530.85,794.06 530.79,793.90 530.74,793.73 C529.66,789.36 529.20,783.58 528.89,772.39 C528.73,766.20 528.60,758.05 528.43,747.17 L 527.81 705.50 L 525.21 702.74 C521.72,699.04 521.70,697.77 525.10,694.05 C527.28,691.66 527.97,689.96 527.88,687.19 L 527.76 683.50 L 527.00 686.50 C526.58,688.15 526.18,688.69 526.12,687.69 C526.05,686.70 525.55,686.16 524.99,686.50 C524.44,686.85 523.27,686.41 522.40,685.54 C521.43,684.57 519.44,684.04 517.30,684.19 C514.47,684.38 512.93,685.40 509.40,689.44 C506.99,692.19 504.28,696.03 503.37,697.97 C502.47,699.91 500.92,702.28 499.92,703.23 C498.20,704.89 498.10,704.80 497.73,701.23 C497.51,699.18 497.25,715.50 497.15,737.50 C497.04,759.50 496.51,780.62 495.96,784.44 C494.58,793.98 489.36,804.48 482.76,811.00 C477.44,816.26 471.87,820.42 466.18,823.42 C463.83,824.61 461.37,825.68 458.80,826.63 C456.54,827.41 454.27,828.00 452.00,828.40 C450.01,828.75 451.31,828.01 455.03,826.69 C470.14,821.29 481.13,813.46 485.15,805.24 C487.09,801.27 487.86,796.38 487.68,785.94 C487.82,782.44 487.61,777.29 487.07,769.00 C486.34,757.99 486.00,752.16 485.24,748.47 L 485.22 748.38 C484.97,747.19 484.68,746.22 484.32,745.37 L 484.32 745.37 C483.32,743.03 481.77,741.59 479.11,738.87 C475.95,735.64 472.86,733.00 472.24,733.00 C471.63,733.00 469.65,731.65 467.84,730.00 C466.04,728.36 463.17,726.75 461.47,726.43 C459.76,726.11 456.42,724.31 454.04,722.42 C451.67,720.54 448.94,719.00 447.99,719.00 C447.05,719.00 445.20,718.19 443.88,717.19 C442.57,716.19 439.02,714.19 436.00,712.74 C432.98,711.28 427.03,707.48 422.80,704.30 C418.56,701.11 411.59,695.94 407.30,692.82 C403.01,689.69 392.08,679.78 383.00,670.79 C368.86,656.79 365.36,653.86 358.50,650.34 C347.14,644.50 346.86,644.46 343.17,647.98 C341.44,649.64 339.21,651.00 338.23,651.00 C335.30,651.00 332.09,648.13 331.19,644.71 C330.38,641.63 330.14,641.50 325.34,641.53 C322.59,641.55 318.54,642.16 316.34,642.89 C309.10,645.28 308.17,643.89 314.21,639.74 C317.22,637.67 321.20,633.85 323.07,631.24 C326.46,626.51 326.45,626.51 320.48,632.56 C316.96,636.14 313.94,638.64 310.86,640.35 C313.01,639.04 315.16,637.06 318.75,633.40 L 326.04 626.00 L 377.63 626.00 C426.35,626.00 429.18,626.10 428.52,627.75 C428.14,628.71 427.38,632.32 426.83,635.76 C424.34,651.49 433.82,667.75 447.99,672.07 C452.73,673.51 460.87,673.02 466.34,670.97 C472.56,668.65 481.09,660.42 483.67,654.26 C486.09,648.49 486.58,635.50 484.63,628.81 C482.87,622.74 476.03,614.10 470.87,611.43 L 468.00 609.95 L 467.99 595.22 C467.96,573.56 465.39,564.61 456.43,555.03 C447.76,545.75 439.10,543.00 418.57,542.99 C404.73,542.99 400.69,542.12 395.60,538.08 C389.42,533.17 344.96,485.63 344.37,483.30 C344.06,482.09 344.63,478.71 345.64,475.80 C347.98,469.02 348.01,453.84 345.70,445.98 C342.55,435.25 333.54,426.00 322.76,422.42 C315.69,420.07 303.10,420.83 297.00,423.97 C288.76,428.21 284.22,432.77 280.26,440.79 C276.67,448.05 276.53,448.72 276.52,458.93 C276.50,468.88 276.70,469.93 279.75,476.14 C287.68,492.26 305.71,500.42 322.57,495.52 L 328.50 493.80 L 332.00 497.73 C345.21,512.54 386.01,554.61 388.93,556.44 C395.61,560.61 399.01,561.22 419.00,561.88 C441.47,562.62 443.80,563.39 448.76,571.84 C451.36,576.27 451.52,577.25 451.86,591.75 L 452.21 607.00 L 327.16 607.00 L 326.00 602.25 C325.37,599.64 324.79,596.71 324.71,595.75 C324.63,594.79 324.14,594.00 323.62,594.00 C323.10,594.00 322.95,593.72 323.29,593.38 C323.63,593.04 321.34,590.17 318.20,587.02 C310.63,579.39 303.56,576.61 293.33,577.25 C278.34,578.17 267.82,587.16 264.16,602.15 C262.61,608.48 264.19,620.47 267.41,626.82 C268.08,628.14 268.86,629.40 269.74,630.60 C268.71,629.25 267.74,627.78 266.83,626.18 C263.74,620.78 263.58,619.97 263.54,610.00 C263.51,601.80 263.89,598.73 265.30,596.00 C266.59,593.48 266.66,593.05 265.54,594.45 C261.77,599.18 260.85,612.26 263.59,622.04 C264.48,625.20 266.97,630.10 269.23,633.11 C271.78,636.51 272.32,637.63 270.71,636.15 C269.30,634.85 267.66,634.09 267.07,634.46 C265.78,635.26 260.61,629.81 258.55,625.47 C254.21,616.31 254.63,599.04 259.46,588.27 C264.25,577.59 278.20,566.08 291.85,561.55 C294.65,560.62 297.73,559.95 298.72,560.06 C301.89,560.41 307.04,558.78 308.29,557.03 C309.77,554.94 313.33,555.08 315.81,557.33 C318.32,559.60 324.25,559.49 326.38,557.13 C327.80,555.57 327.88,554.83 326.88,552.63 C326.22,551.18 324.91,550.00 323.96,550.00 C322.06,550.00 319.67,547.66 320.62,546.72 C320.95,546.39 322.05,546.64 323.06,547.27 C324.08,547.91 325.19,548.14 325.54,547.80 C326.74,546.60 323.82,542.83 320.90,541.82 C317.85,540.75 314.88,537.00 317.09,537.00 C319.66,537.00 314.74,533.11 298.55,522.33 C295.83,520.52 293.22,518.35 292.75,517.51 C292.28,516.67 290.22,515.13 288.18,514.09 C280.35,510.10 266.39,491.24 261.99,478.70 C255.89,461.32 255.77,449.10 261.57,437.00 C266.42,426.88 281.28,412.12 291.24,407.53 C300.54,403.25 318.84,398.00 324.47,398.00 C325.81,398.00 328.06,396.85 329.46,395.44 C332.45,392.46 337.87,390.00 341.47,390.00 C342.86,390.00 343.90,389.66 343.78,389.25 C343.66,388.84 344.73,386.48 346.17,384.00 C349.29,378.62 350.40,374.96 351.94,365.00 C352.58,360.88 353.57,356.15 354.15,354.50 C356.43,347.96 358.68,341.19 360.56,335.26 L 365.94 319.02 L 372.22 312.76 C375.67,309.32 379.17,305.59 380.00,304.49 C382.57,301.04 387.00,294.07 387.00,293.48 C387.00,292.61 394.52,280.95 397.66,276.94 C402.83,270.35 414.02,262.84 422.50,260.27 C429.36,258.19 444.07,259.05 450.54,261.91 C453.13,263.06 455.72,264.00 456.29,264.00 C457.43,264.00 469.37,272.96 475.20,278.18 C481.21,283.57 485.91,290.59 486.64,295.24 C487.00,297.58 487.61,299.73 487.99,300.00 C488.36,300.27 489.96,302.75 491.54,305.50 C493.11,308.25 494.99,310.86 495.70,311.30 C496.74,311.94 497.01,322.97 497.07,366.30 C497.11,397.48 497.51,419.65 498.00,418.50 C498.32,417.76 498.61,417.34 498.78,417.34 C498.86,417.34 498.92,417.43 498.93,417.63 C498.97,418.26 499.79,419.06 500.75,419.41 C501.71,419.76 503.79,420.76 505.36,421.63 C507.87,423.02 515.93,424.45 521.26,424.64 C522.29,424.69 523.23,424.69 524.00,424.63 C525.38,424.53 526.76,424.81 527.09,425.27 C527.10,425.29 527.12,425.29 527.13,425.28 C527.14,425.32 527.15,425.35 527.16,425.39 C527.17,425.47 527.19,425.35 527.22,425.04 C527.98,421.45 528.99,378.66 529.01,347.00 C529.02,332.42 529.37,321.04 529.79,321.70 C530.25,322.41 531.09,322.56 531.89,322.07 C532.63,321.61 534.42,321.55 535.87,321.94 C538.49,322.63 538.50,322.69 539.09,335.07 C539.25,338.54 539.49,341.90 539.75,344.50 C539.84,345.84 539.95,346.78 540.06,347.22 C540.20,348.29 540.35,349.03 540.47,349.32 C540.59,349.58 540.69,349.80 540.80,349.96 L 541.15 351.27 L 544.32 348.09 C546.07,346.35 550.65,342.13 554.50,338.72 ZM 558.50 565.03 C562.27,566.53 565.23,566.93 570.50,566.67 C584.17,565.98 595.90,557.00 599.56,544.43 L 601.04 539.36 L 612.30 538.31 C620.40,537.56 624.81,536.64 628.03,535.02 C630.98,533.53 642.75,522.57 662.72,502.70 L 692.94 472.63 L 697.72 474.81 C707.15,479.10 716.22,480.02 724.61,477.52 C734.90,474.47 744.25,465.69 747.77,455.80 C748.70,453.16 749.79,451.00 750.17,451.00 C750.56,451.00 750.62,449.42 750.31,447.50 C749.94,445.23 750.14,444.00 750.87,444.00 C751.49,444.00 752.00,443.33 752.00,442.50 C752.00,441.67 751.61,441.00 751.14,441.00 C750.42,441.00 749.19,434.34 748.70,427.75 C748.63,426.79 748.27,426.00 747.91,426.00 C747.54,426.00 746.69,424.67 746.02,423.05 C744.29,418.88 734.97,410.37 729.29,407.78 C721.95,404.43 710.44,404.68 702.50,408.34 C694.87,411.87 687.84,419.23 684.87,426.81 C682.99,431.58 682.61,434.65 682.48,445.83 L 682.32 459.17 L 655.48 486.02 C637.59,503.92 626.94,513.81 623.57,515.66 C619.19,518.06 617.13,518.49 608.42,518.83 L 598.33 519.21 L 597.11 516.26 C595.32,511.94 587.21,504.40 581.75,502.00 L 577.00 499.91 L 577.00 446.39 C577.00,394.94 577.08,392.69 579.02,388.19 C580.57,384.58 585.51,379.17 600.54,364.65 L 620.04 345.81 L 625.12 347.03 C633.16,348.96 643.64,347.87 649.92,344.45 C661.64,338.07 668.00,327.01 668.00,313.00 C668.00,299.08 662.20,288.75 650.86,282.47 C646.10,279.83 644.55,279.50 637.00,279.50 C630.14,279.50 627.60,279.95 623.81,281.81 C613.96,286.66 606.95,296.38 605.13,307.69 C604.22,313.30 605.03,326.38 606.59,331.28 C607.14,333.02 603.95,336.60 587.25,352.93 C568.95,370.83 567.06,373.00 565.07,378.42 C561.52,388.11 561.06,396.10 561.03,449.55 L 561.00 500.60 L 557.42 501.89 C555.45,502.60 551.85,505.09 549.42,507.42 L 545.00 511.66 L 544.99 502.08 C544.96,485.38 541.64,475.68 533.28,467.86 C523.40,458.61 523.94,458.71 476.42,458.06 L 435.35 457.50 L 431.67 455.00 C427.49,452.15 389.55,412.36 386.50,407.63 C384.65,404.75 384.50,402.85 384.54,382.51 C384.58,363.06 384.80,360.09 386.43,357.00 C388.17,353.72 410.59,331.00 412.09,331.00 C412.47,331.00 414.74,331.89 417.14,332.98 C420.39,334.45 423.67,334.96 430.00,334.96 C440.35,334.96 445.37,332.99 452.26,326.22 C458.72,319.89 461.00,313.60 461.00,302.12 C461.00,294.30 460.66,292.63 457.94,287.20 C454.59,280.50 449.92,276.18 442.42,272.86 C438.53,271.14 436.28,270.84 429.97,271.21 C421.24,271.71 416.14,274.11 409.80,280.67 C403.48,287.21 401.63,292.74 401.18,306.49 L 400.78 318.48 L 388.01 330.99 C368.83,349.79 367.57,353.39 368.26,387.50 C368.62,404.85 369.07,410.48 370.41,414.12 C372.38,419.50 378.14,426.13 403.42,452.11 C416.64,465.71 423.01,471.51 427.01,473.61 L 432.50 476.50 L 474.00 477.00 C519.35,477.55 519.11,477.52 523.91,483.61 C527.04,487.60 527.76,491.81 528.64,511.50 L 529.45 529.50 L 530.10 519.00 C530.46,513.22 530.81,508.43 530.88,508.36 C531.27,507.89 538.27,509.98 539.37,510.89 C540.09,511.49 540.98,511.69 541.34,511.32 C542.59,510.07 541.99,516.14 540.38,521.07 C539.20,524.69 538.87,528.52 539.18,535.26 C539.54,543.42 539.99,545.24 542.97,550.83 C546.85,558.07 551.35,562.19 558.50,565.03 ZM 641.57 662.57 C653.99,662.54 660.24,662.52 665.61,660.33 C671.41,657.96 676.17,653.04 686.57,642.82 C694.85,634.67 702.42,628.00 703.38,628.00 C704.34,628.00 706.04,628.49 707.15,629.08 C708.26,629.67 711.81,630.70 715.03,631.36 C722.29,632.84 721.81,634.78 713.90,635.88 C705.98,636.97 704.60,637.87 690.00,651.30 C686.42,654.58 681.03,658.88 678.00,660.84 C674.97,662.80 671.60,665.17 670.50,666.10 C669.40,667.04 665.65,668.52 662.17,669.40 C658.68,670.28 652.83,672.31 649.17,673.91 C645.50,675.51 640.52,677.34 638.11,677.99 C626.47,681.08 613.14,695.71 609.40,709.50 C608.66,712.25 607.80,722.15 607.50,731.50 C606.77,753.91 605.25,760.94 599.45,768.75 C596.67,772.49 594.05,774.95 592.55,775.24 L 590.12 775.70 L 592.73 770.60 C594.84,766.48 595.39,763.86 595.60,757.00 L 595.86 748.50 L 595.01 757.27 C594.97,757.67 594.93,758.05 594.89,758.43 C594.91,757.31 594.83,756.04 594.68,754.45 C593.64,743.32 588.93,735.52 580.76,731.38 L 575.86 728.90 L 576.18 701.20 C576.53,671.14 576.65,670.46 582.48,665.00 L 585.16 662.50 L 622.83 662.00 C642.01,661.75 651.44,661.61 656.74,661.22 C652.21,661.74 646.49,661.87 638.50,662.08 L 616.50 662.66 L 639.00 662.58 C639.44,662.58 639.88,662.58 640.31,662.58 L 641.57 662.57 ZM 731.42 616.94 C724.13,619.67 717.74,619.57 711.50,616.62 C705.49,613.78 701.82,610.04 699.08,604.00 C697.00,599.41 696.08,590.03 698.00,593.00 C698.63,593.98 698.97,594.07 698.98,593.26 C699.00,592.03 699.90,590.78 705.41,584.30 C712.31,576.18 724.18,574.15 733.50,579.49 C736.25,581.07 739.91,583.86 741.64,585.69 C743.69,587.86 745.35,588.80 746.39,588.40 C747.73,587.89 748.00,588.58 748.00,592.53 C748.00,599.70 746.08,604.70 741.27,610.05 C738.22,613.44 735.27,615.50 731.42,616.94 ZM 304.25 630.57 C298.38,632.67 289.22,632.35 284.24,629.89 C276.15,625.89 270.02,616.73 270.01,608.64 C270.00,606.52 270.38,605.93 271.49,606.36 C273.13,606.99 273.61,606.54 278.15,600.21 C285.61,589.82 299.47,588.02 309.82,596.09 C312.59,598.25 317.95,605.46 318.12,607.24 C318.18,607.93 318.58,607.15 319.00,605.50 C319.64,602.99 319.78,603.40 319.87,608.00 C320.07,618.23 313.92,627.12 304.25,630.57 ZM 726.55 464.02 C719.30,467.13 709.82,467.11 703.96,463.98 C698.14,460.86 688.55,449.12 690.35,447.31 C690.62,447.04 691.47,448.02 692.24,449.49 C693.58,452.05 693.64,451.90 693.81,445.92 C693.98,439.65 695.09,436.91 699.38,432.15 C702.23,428.99 709.72,425.28 714.01,424.91 C718.46,424.52 726.76,425.89 730.00,427.53 C732.53,428.82 738.00,438.29 738.00,441.38 C738.00,445.28 733.62,455.74 730.67,458.88 C728.58,461.11 728.18,461.90 729.50,461.22 C732.04,459.92 735.85,456.35 738.83,452.50 L 741.14 449.50 L 739.32 452.85 C736.96,457.19 731.65,461.84 726.55,464.02 ZM 637.50 334.00 C637.50,337.38 627.39,335.55 621.03,331.02 C617.87,328.77 614.60,323.92 613.58,320.00 C613.19,318.46 613.76,319.04 615.08,321.50 C617.81,326.58 620.74,329.79 624.34,331.67 C628.66,333.91 628.44,332.74 624.03,330.02 C619.02,326.92 618.00,324.50 618.00,315.65 C618.00,309.14 618.31,307.97 621.03,304.27 C624.40,299.70 630.97,296.00 635.75,296.00 C640.73,296.00 650.93,300.87 651.61,303.56 C651.92,304.82 653.04,306.63 654.09,307.58 C656.62,309.87 656.83,318.74 654.38,319.68 C653.49,320.03 651.47,322.34 649.90,324.82 C647.62,328.41 646.06,329.66 642.27,330.92 C639.40,331.87 637.50,333.10 637.50,334.00 ZM 577.87 773.38 C574.98,774.82 571.01,775.98 569.05,775.96 C558.39,775.82 548.98,767.53 549.02,758.30 C549.03,755.09 549.77,753.78 553.82,749.84 C559.49,744.33 564.88,742.51 572.65,743.48 C577.48,744.08 584.97,747.86 585.83,750.12 C586.02,750.60 586.86,751.00 587.70,751.00 C588.96,751.00 589.16,752.07 588.81,756.91 C588.24,764.82 584.87,769.89 577.87,773.38 ZM 468.02 650.97 C467.48,651.98 465.34,654.13 463.27,655.76 C460.31,658.07 458.96,658.54 457.00,657.94 C455.62,657.52 453.27,656.90 451.77,656.57 C450.27,656.24 447.40,654.54 445.41,652.79 C442.03,649.82 441.82,649.30 442.29,645.09 C442.71,641.41 443.57,639.86 446.97,636.68 C450.95,632.98 451.36,632.83 455.81,633.49 C461.69,634.38 465.25,636.20 467.35,639.41 C469.19,642.21 469.53,648.15 468.02,650.97 ZM 321.99 476.00 C317.52,478.40 311.25,478.78 305.93,476.97 C300.05,474.98 299.30,474.13 298.43,468.32 C297.70,463.52 299.32,460.67 304.84,457.05 C307.55,455.28 308.99,454.99 312.35,455.55 C314.63,455.93 317.70,456.85 319.17,457.60 C326.72,461.47 328.42,472.56 321.99,476.00 ZM 436.59 319.50 C432.64,322.90 429.55,322.73 427.34,319.00 C425.39,315.70 423.87,315.25 422.05,317.44 C421.39,318.23 420.21,318.63 419.43,318.33 C417.79,317.71 417.50,314.42 419.00,313.50 C420.53,312.55 420.19,309.00 418.56,309.00 C416.52,309.00 415.71,307.29 416.42,304.48 C417.10,301.76 425.94,294.54 427.13,295.73 C427.55,296.15 428.97,298.53 430.28,301.00 C431.59,303.48 433.52,305.66 434.58,305.87 C436.42,306.22 436.42,306.15 434.75,304.29 C432.82,302.15 432.38,298.00 434.07,298.00 C434.66,298.00 437.14,299.17 439.57,300.60 C443.63,302.97 444.00,303.52 444.00,307.14 C444.00,310.98 441.69,317.00 440.22,317.00 C439.83,317.00 438.19,318.13 436.59,319.50 ZM 699.71 625.71 C696.33,628.75 695.43,629.03 695.28,627.05 C694.92,622.27 692.89,617.11 691.57,617.61 C690.42,618.05 690.43,617.43 691.66,613.85 C692.52,611.38 692.90,608.07 692.56,606.03 L 691.99 602.50 L 694.10 606.50 C697.12,612.21 702.71,617.76 708.50,620.80 C712.76,623.03 714.76,623.42 722.00,623.42 C729.24,623.42 731.24,623.03 735.50,620.80 C740.36,618.24 746.00,613.05 749.35,608.03 C750.26,606.67 751.00,606.04 751.00,606.62 C751.00,608.21 743.65,619.17 740.88,621.70 C733.46,628.50 719.58,630.33 708.08,626.03 C701.92,623.73 701.92,623.73 699.71,625.71 ZM 728.50 474.46 C719.22,478.84 709.37,478.44 697.48,473.21 C690.02,469.92 688.72,468.31 687.21,460.48 C686.68,457.74 685.91,454.60 685.49,453.50 C685.07,452.40 686.32,453.68 688.26,456.35 C695.69,466.55 703.64,470.94 714.72,470.98 C727.27,471.02 737.18,466.10 743.51,456.71 C747.08,451.41 748.10,450.97 745.60,455.80 C744.83,457.29 743.26,459.36 742.10,460.41 C739.82,462.47 739.23,464.55 741.25,463.41 C741.94,463.03 740.47,464.82 738.00,467.40 C735.53,469.98 731.25,473.16 728.50,474.46 ZM 309.89 638.46 C305.63,640.78 303.08,641.42 297.04,641.67 C288.06,642.05 281.70,639.89 275.50,634.35 C271.74,630.99 271.71,630.92 275.00,633.21 C281.00,637.38 281.67,637.39 277.00,633.22 C274.52,631.01 272.09,629.46 271.60,629.76 C271.10,630.06 270.96,629.87 271.29,629.34 C271.62,628.80 270.57,626.37 268.95,623.93 C267.33,621.50 266.02,618.83 266.04,618.00 C266.06,617.17 266.68,617.85 267.41,619.50 C269.64,624.54 276.74,631.69 282.21,634.42 C289.79,638.19 300.19,638.09 308.51,634.16 C314.99,631.09 319.73,626.42 323.13,619.74 C325.15,615.79 325.33,615.67 326.11,617.78 C327.28,620.93 329.93,621.67 342.37,622.33 C348.35,622.65 353.51,623.18 353.84,623.50 C354.16,623.83 347.31,624.03 338.61,623.95 C327.13,623.85 322.48,624.15 321.65,625.05 C320.78,625.99 320.80,626.12 321.75,625.59 C324.17,624.22 322.96,626.77 319.11,631.14 C316.96,633.58 312.82,636.87 309.89,638.46 ZM 321.50 493.87 C313.92,495.92 299.83,494.45 297.08,491.33 C296.76,490.97 297.29,490.96 298.25,491.31 C300.95,492.28 300.35,491.09 296.25,487.33 L 292.50 483.89 L 297.50 486.17 C301.55,488.00 304.30,488.44 312.00,488.47 C320.49,488.50 322.08,488.20 327.00,485.68 C330.02,484.12 333.62,481.87 335.00,480.68 C337.20,478.77 337.17,478.88 334.75,481.56 C332.18,484.41 331.06,486.69 332.75,485.66 C333.16,485.40 333.59,486.49 333.71,488.06 C333.94,491.36 333.10,492.10 328.67,492.51 C326.93,492.67 323.70,493.28 321.50,493.87 ZM 639.57 346.23 C638.98,346.64 637.38,346.94 636.00,346.89 C631.71,346.77 619.43,344.30 617.24,343.13 C614.38,341.60 610.59,336.64 611.93,336.19 C612.53,335.99 612.71,335.34 612.34,334.74 C611.91,334.05 612.28,333.89 613.37,334.31 C614.61,334.79 614.31,333.94 612.30,331.23 L 609.53 327.50 L 614.32 331.82 C616.96,334.20 621.45,337.23 624.31,338.56 C633.54,342.86 646.19,341.32 654.39,334.89 C661.06,329.66 661.69,329.38 658.09,333.26 C656.21,335.28 652.76,337.83 650.41,338.94 C648.07,340.04 645.88,341.38 645.55,341.92 C645.21,342.47 644.28,342.66 643.48,342.35 C642.61,342.02 641.74,342.55 641.33,343.65 C640.95,344.67 640.16,345.83 639.57,346.23 ZM 665.04 656.70 C659.12,659.37 645.24,660.65 639.50,659.07 C637.59,658.54 637.20,658.19 638.42,658.12 C639.47,658.05 640.04,657.71 639.68,657.35 C638.63,656.30 643.60,654.18 648.74,653.48 C651.36,653.12 655.36,651.99 657.63,650.97 C659.90,649.94 664.09,648.89 666.94,648.62 C669.79,648.36 672.88,647.55 673.81,646.82 C675.33,645.63 675.36,645.68 674.13,647.25 C672.19,649.72 673.88,649.43 676.94,646.77 C678.35,645.54 677.47,646.72 675.00,649.39 C672.36,652.23 668.24,655.26 665.04,656.70 ZM 444.26 330.70 C440.78,332.73 438.20,333.38 432.64,333.60 C424.59,333.92 423.75,333.78 415.77,330.74 C410.00,328.53 408.08,326.52 409.95,324.65 C410.65,323.95 411.72,324.33 413.30,325.81 C414.58,327.02 416.02,328.00 416.50,328.00 C416.99,328.00 414.93,325.72 411.94,322.94 L 406.50 317.89 L 411.82 321.92 C420.08,328.20 430.92,330.54 440.03,328.01 C445.52,326.48 452.85,321.37 455.16,317.46 C457.68,313.19 458.81,313.54 456.56,317.89 C454.07,322.71 449.14,327.83 444.26,330.70 ZM 468.69 668.16 C464.70,670.19 452.24,672.05 454.83,670.22 C456.42,669.10 448.55,667.54 446.78,668.63 C446.13,669.04 445.98,668.85 446.40,668.15 C446.80,667.51 446.54,666.99 445.81,666.98 C445.09,666.97 443.38,666.08 442.00,665.00 C439.15,662.77 437.53,662.41 438.63,664.25 C439.15,665.11 438.86,665.07 437.70,664.14 C436.78,663.39 436.23,662.43 436.49,662.02 C436.74,661.61 436.02,660.42 434.87,659.39 C432.88,657.58 430.00,652.86 430.00,651.40 C430.00,651.01 431.28,652.47 432.85,654.64 C436.98,660.33 441.23,663.58 447.11,665.54 C457.56,669.01 470.25,665.63 478.82,657.10 C481.21,654.72 481.87,654.37 481.03,655.94 C478.85,660.02 472.69,666.12 468.69,668.16 ZM 576.75 564.07 C572.44,565.23 564.36,565.09 561.44,563.81 C559.73,563.06 559.76,563.01 561.75,563.39 C565.76,564.15 564.13,562.52 559.10,560.73 C554.70,559.16 544.00,550.91 544.00,549.08 C544.00,548.67 545.98,550.24 548.41,552.56 C558.22,561.96 571.84,563.49 584.66,556.62 C590.27,553.61 590.96,553.41 588.50,555.50 C586.85,556.90 585.61,558.47 585.74,558.99 C585.87,559.50 585.41,559.71 584.71,559.44 C584.01,559.17 582.56,559.67 581.47,560.53 C579.59,562.04 579.61,562.06 582.00,561.00 C584.39,559.94 584.41,559.96 582.53,561.47 C581.45,562.33 578.84,563.50 576.75,564.07 ZM 696.50 536.19 C693.25,535.53 692.00,533.96 692.00,530.53 C692.00,525.35 697.56,522.17 701.85,524.89 C703.37,525.85 702.30,528.67 699.57,530.95 C698.72,531.65 698.27,532.63 698.58,533.13 C699.41,534.47 700.99,533.15 702.12,530.19 C702.88,528.19 703.32,527.90 703.96,528.94 C704.83,530.35 704.38,532.60 702.81,534.64 C701.71,536.08 699.09,536.72 696.50,536.19 ZM 573.42 539.15 C571.64,542.60 568.35,542.90 565.13,539.91 C562.58,537.53 562.56,533.29 565.09,531.71 C565.96,531.16 568.27,531.02 570.23,531.38 C574.47,532.18 575.60,534.93 573.42,539.15 ZM 578.34 780.34 C573.84,782.64 565.26,783.31 560.91,781.69 C556.04,779.87 550.19,775.27 548.44,771.89 C546.22,767.59 546.68,767.64 550.75,772.15 C555.74,777.69 560.95,779.95 568.80,779.98 C575.62,780.00 578.93,778.74 585.47,773.61 C588.56,771.19 589.10,770.99 587.91,772.71 C586.03,775.41 582.56,778.18 578.34,780.34 ZM 664.54 659.53 C664.85,659.39 665.16,659.24 665.50,659.07 C668.88,657.43 675.58,651.64 686.21,641.18 L 701.91 625.72 L 702.67 625.96 L 687.51 640.92 C676.23,652.06 671.22,657.12 664.54,659.53 ZM 438.68 831.30 C433.13,831.90 427.57,831.97 422.01,831.50 C421.03,831.37 420.31,831.20 420.00,831.00 C418.99,830.35 422.42,830.06 430.50,830.11 C438.04,830.17 441.57,830.50 440.00,831.00 C439.65,831.11 439.21,831.21 438.68,831.30 ZM 578.65 782.34 C583.45,780.05 589.61,773.12 592.58,766.62 C593.40,764.82 593.97,763.46 594.33,762.20 C593.04,769.09 590.47,773.50 585.50,777.86 C583.26,779.83 581.03,781.30 578.65,782.34 ZM 328.61 651.43 C328.19,650.32 327.27,649.96 325.84,650.33 C324.39,650.71 324.04,650.56 324.73,649.87 C326.21,648.39 331.50,649.22 331.50,650.92 C331.50,652.98 329.35,653.36 328.61,651.43 ZM 698.84 526.50 C697.68,525.34 695.00,527.31 695.00,529.33 L 695.00 531.44 L 697.19 529.25 C698.40,528.04 699.14,526.81 698.84,526.50 ZM 528.00 698.88 C528.00,696.26 527.77,695.95 526.54,696.96 C525.38,697.93 525.33,698.55 526.29,700.09 C527.87,702.63 528.00,702.53 528.00,698.88 ZM 422.00 305.61 C422.00,306.37 422.39,307.00 422.88,307.00 C424.12,307.00 426.10,304.43 425.39,303.73 C424.43,302.76 422.00,304.11 422.00,305.61 ZM 340.54 646.93 C341.71,645.04 340.00,644.57 338.26,646.31 C336.70,647.87 336.70,648.00 338.23,648.00 C339.14,648.00 340.18,647.52 340.54,646.93 ZM 703.63 626.27 L 709.12 628.04 C719.28,631.31 726.90,631.19 734.50,627.67 C735.39,627.25 736.21,626.86 736.97,626.47 C734.31,627.92 731.37,629.09 728.16,629.96 C723.18,631.30 710.47,629.81 705.65,627.32 ZM 736.00 467.28 C736.00,467.85 736.90,467.49 738.01,466.49 C739.11,465.50 739.80,464.46 739.53,464.20 C738.86,463.53 736.00,466.02 736.00,467.28 ZM 657.53 336.19 C657.85,336.52 656.63,337.80 654.81,339.04 L 651.50 341.30 L 654.22 338.45 C655.72,336.89 657.20,335.87 657.53,336.19 ZM 445.00 328.72 C445.00,329.48 448.75,327.00 450.08,325.36 C450.96,324.28 450.26,324.52 448.25,326.00 C446.46,327.31 445.00,328.53 445.00,328.72 ZM 470.00 665.61 C470.00,666.42 471.91,665.96 472.49,665.01 C472.84,664.44 472.44,664.28 471.55,664.62 C470.70,664.95 470.00,665.39 470.00,665.61 ZM 744.50 620.88 C745.77,619.45 747.02,617.72 748.48,615.50 C749.87,613.39 750.95,611.47 751.80,609.56 C750.15,613.90 747.69,617.70 744.50,620.88 ZM 282.08 640.48 C285.03,641.84 288.19,642.81 291.43,643.33 C288.24,643.05 286.08,642.36 282.95,640.90 C282.66,640.76 282.37,640.62 282.08,640.48 Z" fill="rgb(164,37,169)"/>
<path d="M 0.00 512.00 L 0.00 0.00 L 512.00 0.00 L 1024.00 0.00 L 1024.00 512.00 L 1024.00 1024.00 L 512.00 1024.00 L 0.00 1024.00 L 0.00 512.00 ZM 622.59 871.13 C649.07,865.12 671.44,852.54 690.40,833.00 C705.11,817.85 713.71,803.50 720.40,783.00 L 723.50 773.50 L 729.00 772.24 C748.13,767.87 765.70,760.06 779.23,749.92 C815.29,722.88 837.31,677.46 834.44,636.00 L 833.79 626.50 L 839.68 620.00 C869.92,586.66 882.78,539.13 874.43,491.54 C869.95,466.01 856.38,437.91 839.52,419.28 L 834.00 413.19 L 833.99 396.84 C833.99,387.78 833.35,376.27 832.56,370.99 C830.00,354.03 821.04,330.77 811.82,317.17 C802.83,303.90 787.59,288.70 773.75,279.17 C762.32,271.31 743.95,263.11 727.43,258.50 C726.84,258.34 725.04,254.22 723.43,249.35 C714.70,222.97 696.53,199.89 671.00,182.74 C636.53,159.60 595.06,152.16 558.50,162.57 C546.71,165.92 529.09,174.62 521.24,180.95 C517.80,183.73 514.84,186.00 514.66,186.00 C514.48,186.00 510.01,183.11 504.72,179.57 C492.69,171.53 483.06,166.93 470.33,163.14 C430.54,151.33 385.26,160.23 349.50,186.92 C328.27,202.76 309.36,228.06 301.66,250.93 L 299.16 258.34 L 292.16 260.16 C277.93,263.85 259.40,273.42 244.97,284.52 C224.72,300.10 206.24,326.25 198.69,350.00 C193.93,364.98 192.78,373.12 192.54,393.42 L 192.32 412.33 L 185.77 420.42 C166.55,444.18 156.77,464.03 150.78,491.50 C147.53,506.39 147.58,533.92 150.89,550.00 C156.06,575.12 165.84,595.74 181.89,615.36 C192.31,628.11 192.05,627.57 191.35,635.15 C190.36,645.78 192.74,665.84 196.57,679.19 C209.40,723.93 246.94,760.23 291.00,770.49 C299.15,772.39 303.00,774.28 303.00,776.40 C303.00,779.32 308.32,793.80 312.44,802.09 C318.45,814.20 324.83,822.87 335.98,834.08 C349.54,847.73 368.87,860.08 385.69,865.84 C402.96,871.75 407.50,872.48 427.00,872.49 C439.03,872.50 447.42,872.03 451.00,871.17 C471.14,866.29 485.15,859.45 499.35,847.57 C504.15,843.56 508.12,841.00 509.56,841.00 C511.00,841.00 515.95,844.17 522.21,849.10 C538.06,861.57 555.59,869.30 575.47,872.58 C587.06,874.50 611.00,873.76 622.59,871.13 ZM 561.88 783.67 C549.05,778.91 542.99,769.90 543.01,755.62 C543.03,744.12 548.91,734.43 558.25,730.54 L 562.00 728.97 L 562.00 698.46 C562.00,670.51 562.17,667.47 564.00,662.26 C566.59,654.90 570.10,650.68 577.41,646.16 L 583.32 642.50 L 620.41 642.00 C654.00,641.55 657.83,641.33 661.00,639.65 C662.92,638.63 670.34,631.75 677.48,624.36 L 690.47 610.93 L 690.48 598.16 C690.50,585.71 690.58,585.25 693.80,578.95 C697.60,571.54 703.30,566.63 711.34,563.85 C718.12,561.51 724.33,561.55 732.25,563.99 C740.76,566.63 746.91,572.04 751.15,580.65 C753.93,586.30 754.37,588.23 754.36,594.85 C754.34,603.83 752.97,608.65 748.48,615.50 C744.08,622.21 741.59,624.38 734.50,627.67 C726.90,631.19 719.28,631.31 709.12,628.04 L 701.91 625.72 L 686.21 641.18 C675.58,651.64 668.88,657.43 665.50,659.07 C660.54,661.48 660.18,661.50 622.83,662.00 L 585.16 662.50 L 582.48 665.00 C576.65,670.46 576.53,671.14 576.18,701.20 L 575.86 728.90 L 580.76 731.38 C588.93,735.52 593.64,743.32 594.68,754.45 C595.19,759.90 594.91,761.53 592.58,766.62 C589.52,773.33 583.05,780.49 578.19,782.55 C573.11,784.70 565.97,785.19 561.88,783.67 ZM 578.34 780.34 C582.56,778.18 586.03,775.41 587.91,772.71 C589.10,770.99 588.56,771.19 585.47,773.61 C578.93,778.74 575.62,780.00 568.80,779.98 C560.95,779.95 555.74,777.69 550.75,772.15 C546.68,767.64 546.22,767.59 548.44,771.89 C550.19,775.27 556.04,779.87 560.91,781.69 C565.26,783.31 573.84,782.64 578.34,780.34 ZM 577.87 773.38 C584.87,769.89 588.24,764.82 588.81,756.91 C589.16,752.07 588.96,751.00 587.70,751.00 C586.86,751.00 586.02,750.60 585.83,750.12 C584.97,747.86 577.48,744.08 572.65,743.48 C564.88,742.51 559.49,744.33 553.82,749.84 C549.77,753.78 549.03,755.09 549.02,758.30 C548.98,767.53 558.39,775.82 569.05,775.96 C571.01,775.98 574.98,774.82 577.87,773.38 ZM 665.04 656.70 C668.24,655.26 672.36,652.23 675.00,649.39 C677.47,646.72 678.35,645.54 676.94,646.77 C673.88,649.43 672.19,649.72 674.13,647.25 C675.36,645.68 675.33,645.63 673.81,646.82 C672.88,647.55 669.79,648.36 666.94,648.62 C664.09,648.89 659.90,649.94 657.63,650.97 C655.36,651.99 651.36,653.12 648.74,653.48 C643.60,654.18 638.63,656.30 639.68,657.35 C640.04,657.71 639.47,658.05 638.42,658.12 C637.20,658.19 637.59,658.54 639.50,659.07 C645.24,660.65 659.12,659.37 665.04,656.70 ZM 699.71 625.71 C701.92,623.73 701.92,623.73 708.08,626.03 C719.58,630.33 733.46,628.50 740.88,621.70 C743.65,619.17 751.00,608.21 751.00,606.62 C751.00,606.04 750.26,606.67 749.35,608.03 C746.00,613.05 740.36,618.24 735.50,620.80 C731.24,623.03 729.24,623.42 722.00,623.42 C714.76,623.42 712.76,623.03 708.50,620.80 C702.71,617.76 697.12,612.21 694.10,606.50 L 691.99 602.50 L 692.56 606.03 C692.90,608.07 692.52,611.38 691.66,613.85 C690.43,617.43 690.42,618.05 691.57,617.61 C692.89,617.11 694.92,622.27 695.28,627.05 C695.43,629.03 696.33,628.75 699.71,625.71 ZM 731.42 616.94 C735.27,615.50 738.22,613.44 741.27,610.05 C746.08,604.70 748.00,599.70 748.00,592.53 C748.00,588.58 747.73,587.89 746.39,588.40 C745.35,588.80 743.69,587.86 741.64,585.69 C739.91,583.86 736.25,581.07 733.50,579.49 C724.18,574.15 712.31,576.18 705.41,584.30 C699.90,590.78 699.00,592.03 698.98,593.26 C698.97,594.07 698.63,593.98 698.00,593.00 C696.08,590.03 697.00,599.41 699.08,604.00 C701.82,610.04 705.49,613.78 711.50,616.62 C717.74,619.57 724.13,619.67 731.42,616.94 ZM 447.99 672.07 C433.82,667.75 424.34,651.49 426.83,635.76 C427.38,632.32 428.14,628.71 428.52,627.75 C429.18,626.10 426.35,626.00 377.63,626.00 L 326.04 626.00 L 318.75 633.40 C312.51,639.75 310.63,641.05 305.56,642.53 C291.03,646.75 273.94,639.71 267.41,626.82 C264.19,620.47 262.61,608.48 264.16,602.15 C267.82,587.16 278.34,578.17 293.33,577.25 C303.56,576.61 310.63,579.39 318.20,587.02 C321.34,590.17 323.63,593.04 323.29,593.38 C322.95,593.72 323.10,594.00 323.62,594.00 C324.14,594.00 324.63,594.79 324.71,595.75 C324.79,596.71 325.37,599.64 326.00,602.25 L 327.16 607.00 L 389.69 607.00 L 452.21 607.00 L 451.86 591.75 C451.52,577.25 451.36,576.27 448.76,571.84 C443.80,563.39 441.47,562.62 419.00,561.88 C399.01,561.22 395.61,560.61 388.93,556.44 C386.01,554.61 345.21,512.54 332.00,497.73 L 328.50 493.80 L 322.57 495.52 C305.71,500.42 287.68,492.26 279.75,476.14 C276.70,469.93 276.50,468.88 276.52,458.93 C276.53,448.72 276.67,448.05 280.26,440.79 C284.22,432.77 288.76,428.21 297.00,423.97 C303.10,420.83 315.69,420.07 322.76,422.42 C333.54,426.00 342.55,435.25 345.70,445.98 C348.01,453.84 347.98,469.02 345.64,475.80 C344.63,478.71 344.06,482.09 344.37,483.30 C344.96,485.63 389.42,533.17 395.60,538.08 C400.69,542.12 404.73,542.99 418.57,542.99 C439.10,543.00 447.76,545.75 456.43,555.03 C465.39,564.61 467.96,573.56 467.99,595.22 L 468.00 609.95 L 470.87 611.43 C476.03,614.10 482.87,622.74 484.63,628.81 C486.58,635.50 486.09,648.49 483.67,654.26 C481.09,660.42 472.56,668.65 466.34,670.97 C460.87,673.02 452.73,673.51 447.99,672.07 ZM 468.69 668.16 C472.69,666.12 478.85,660.02 481.03,655.94 C481.87,654.37 481.21,654.72 478.82,657.10 C470.25,665.63 457.56,669.01 447.11,665.54 C441.23,663.58 436.98,660.33 432.85,654.64 C431.28,652.47 430.00,651.01 430.00,651.40 C430.00,652.86 432.88,657.58 434.87,659.39 C436.02,660.42 436.74,661.61 436.49,662.02 C436.23,662.43 436.78,663.39 437.70,664.14 C438.86,665.07 439.15,665.11 438.63,664.25 C437.53,662.41 439.15,662.77 442.00,665.00 C443.38,666.08 445.09,666.97 445.81,666.98 C446.54,666.99 446.80,667.51 446.40,668.15 C445.98,668.85 446.13,669.04 446.78,668.63 C448.55,667.54 456.42,669.10 454.83,670.22 C452.24,672.05 464.70,670.19 468.69,668.16 ZM 468.02 650.97 C469.53,648.15 469.19,642.21 467.35,639.41 C465.25,636.20 461.69,634.38 455.81,633.49 C451.36,632.83 450.95,632.98 446.97,636.68 C443.57,639.86 442.71,641.41 442.29,645.09 C441.82,649.30 442.03,649.82 445.41,652.79 C447.40,654.54 450.27,656.24 451.77,656.57 C453.27,656.90 455.62,657.52 457.00,657.94 C458.96,658.54 460.31,658.07 463.27,655.76 C465.34,654.13 467.48,651.98 468.02,650.97 ZM 309.89 638.46 C312.82,636.87 316.96,633.58 319.11,631.14 C322.96,626.77 324.17,624.22 321.75,625.59 C320.80,626.12 320.78,625.99 321.65,625.05 C322.48,624.15 327.13,623.85 338.61,623.95 C347.31,624.03 354.16,623.83 353.84,623.50 C353.51,623.18 348.35,622.65 342.37,622.33 C329.93,621.67 327.28,620.93 326.11,617.78 C325.33,615.67 325.15,615.79 323.13,619.74 C319.73,626.42 314.99,631.09 308.51,634.16 C300.19,638.09 289.79,638.19 282.21,634.42 C276.74,631.69 269.64,624.54 267.41,619.50 C266.68,617.85 266.06,617.17 266.04,618.00 C266.02,618.83 267.33,621.50 268.95,623.93 C270.57,626.37 271.62,628.80 271.29,629.34 C270.96,629.87 271.10,630.06 271.60,629.76 C272.09,629.46 274.52,631.01 277.00,633.22 C281.67,637.39 281.00,637.38 275.00,633.21 C271.71,630.92 271.74,630.99 275.50,634.35 C281.70,639.89 288.06,642.05 297.04,641.67 C303.08,641.42 305.63,640.78 309.89,638.46 ZM 304.25 630.57 C313.92,627.12 320.07,618.23 319.87,608.00 C319.78,603.40 319.64,602.99 319.00,605.50 C318.58,607.15 318.18,607.93 318.12,607.24 C317.95,605.46 312.59,598.25 309.82,596.09 C299.47,588.02 285.61,589.82 278.15,600.21 C273.61,606.54 273.13,606.99 271.49,606.36 C270.38,605.93 270.00,606.52 270.01,608.64 C270.02,616.73 276.15,625.89 284.24,629.89 C289.22,632.35 298.38,632.67 304.25,630.57 ZM 321.50 493.87 C323.70,493.28 326.93,492.67 328.67,492.51 C333.10,492.10 333.94,491.36 333.71,488.06 C333.59,486.49 333.16,485.40 332.75,485.66 C331.06,486.69 332.18,484.41 334.75,481.56 C337.17,478.88 337.20,478.77 335.00,480.68 C333.62,481.87 330.02,484.12 327.00,485.68 C322.08,488.20 320.49,488.50 312.00,488.47 C304.30,488.44 301.55,488.00 297.50,486.17 L 292.50 483.89 L 296.25 487.33 C300.35,491.09 300.95,492.28 298.25,491.31 C297.29,490.96 296.76,490.97 297.08,491.33 C299.83,494.45 313.92,495.92 321.50,493.87 ZM 321.99 476.00 C328.42,472.56 326.72,461.47 319.17,457.60 C317.70,456.85 314.63,455.93 312.35,455.55 C308.99,454.99 307.55,455.28 304.84,457.05 C299.32,460.67 297.70,463.52 298.43,468.32 C299.30,474.13 300.05,474.98 305.93,476.97 C311.25,478.78 317.52,478.40 321.99,476.00 ZM 558.50 565.03 C551.35,562.19 546.85,558.07 542.97,550.83 C539.99,545.24 539.54,543.42 539.18,535.26 C538.87,528.52 539.20,524.69 540.38,521.07 C541.99,516.14 542.59,510.07 541.34,511.32 C540.98,511.69 540.09,511.49 539.37,510.89 C538.27,509.98 531.27,507.89 530.88,508.36 C530.81,508.43 530.46,513.22 530.10,519.00 L 529.45 529.50 L 528.64 511.50 C527.76,491.81 527.04,487.60 523.91,483.61 C519.11,477.52 519.35,477.55 474.00,477.00 L 432.50 476.50 L 427.01 473.61 C423.01,471.51 416.64,465.71 403.42,452.11 C378.14,426.13 372.38,419.50 370.41,414.12 C369.07,410.48 368.62,404.85 368.26,387.50 C367.57,353.39 368.83,349.79 388.01,330.99 L 400.78 318.48 L 401.18 306.49 C401.63,292.74 403.48,287.21 409.80,280.67 C416.14,274.11 421.24,271.71 429.97,271.21 C436.28,270.84 438.53,271.14 442.42,272.86 C449.92,276.18 454.59,280.50 457.94,287.20 C460.66,292.63 461.00,294.30 461.00,302.12 C461.00,313.60 458.72,319.89 452.26,326.22 C445.37,332.99 440.35,334.96 430.00,334.96 C423.67,334.96 420.39,334.45 417.14,332.98 C414.74,331.89 412.47,331.00 412.09,331.00 C410.59,331.00 388.17,353.72 386.43,357.00 C384.80,360.09 384.58,363.06 384.54,382.51 C384.50,402.85 384.65,404.75 386.50,407.63 C389.55,412.36 427.49,452.15 431.67,455.00 L 435.35 457.50 L 476.42 458.06 C523.94,458.71 523.40,458.61 533.28,467.86 C541.64,475.68 544.96,485.38 544.99,502.08 L 545.00 511.66 L 549.42 507.42 C551.85,505.09 555.45,502.60 557.42,501.89 L 561.00 500.60 L 561.03 449.55 C561.06,396.10 561.52,388.11 565.07,378.42 C567.06,373.00 568.95,370.83 587.25,352.93 C603.95,336.60 607.14,333.02 606.59,331.28 C605.03,326.38 604.22,313.30 605.13,307.69 C606.95,296.38 613.96,286.66 623.81,281.81 C627.60,279.95 630.14,279.50 637.00,279.50 C644.55,279.50 646.10,279.83 650.86,282.47 C662.20,288.75 668.00,299.08 668.00,313.00 C668.00,327.01 661.64,338.07 649.92,344.45 C643.64,347.87 633.16,348.96 625.12,347.03 L 620.04 345.81 L 600.54 364.65 C585.51,379.17 580.57,384.58 579.02,388.19 C577.08,392.69 577.00,394.94 577.00,446.39 L 577.00 499.91 L 581.75 502.00 C587.21,504.40 595.32,511.94 597.11,516.26 L 598.33 519.21 L 608.42 518.83 C617.13,518.49 619.19,518.06 623.57,515.66 C626.94,513.81 637.59,503.92 655.48,486.02 L 682.32 459.17 L 682.48 445.83 C682.61,434.65 682.99,431.58 684.87,426.81 C687.84,419.23 694.87,411.87 702.50,408.34 C710.44,404.68 721.95,404.43 729.29,407.78 C734.97,410.37 744.29,418.88 746.02,423.05 C746.69,424.67 747.54,426.00 747.91,426.00 C748.27,426.00 748.63,426.79 748.70,427.75 C749.19,434.34 750.42,441.00 751.14,441.00 C751.61,441.00 752.00,441.67 752.00,442.50 C752.00,443.33 751.49,444.00 750.87,444.00 C750.14,444.00 749.94,445.23 750.31,447.50 C750.62,449.42 750.56,451.00 750.17,451.00 C749.79,451.00 748.70,453.16 747.77,455.80 C744.25,465.69 734.90,474.47 724.61,477.52 C716.22,480.02 707.15,479.10 697.72,474.81 L 692.94 472.63 L 662.72 502.70 C642.75,522.57 630.98,533.53 628.03,535.02 C624.81,536.64 620.40,537.56 612.30,538.31 L 601.04 539.36 L 599.56 544.43 C595.90,557.00 584.17,565.98 570.50,566.67 C565.23,566.93 562.27,566.53 558.50,565.03 ZM 576.75 564.07 C578.84,563.50 581.45,562.33 582.53,561.47 C584.41,559.96 584.39,559.94 582.00,561.00 C579.61,562.06 579.59,562.04 581.47,560.53 C582.56,559.67 584.01,559.17 584.71,559.44 C585.41,559.71 585.87,559.50 585.74,558.99 C585.61,558.47 586.85,556.90 588.50,555.50 C590.96,553.41 590.27,553.61 584.66,556.62 C571.84,563.49 558.22,561.96 548.41,552.56 C545.98,550.24 544.00,548.67 544.00,549.08 C544.00,550.91 554.70,559.16 559.10,560.73 C564.13,562.52 565.76,564.15 561.75,563.39 C559.76,563.01 559.73,563.06 561.44,563.81 C564.36,565.09 572.44,565.23 576.75,564.07 ZM 573.42 539.15 C575.60,534.93 574.47,532.18 570.23,531.38 C568.27,531.02 565.96,531.16 565.09,531.71 C562.56,533.29 562.58,537.53 565.13,539.91 C568.35,542.90 571.64,542.60 573.42,539.15 ZM 728.50 474.46 C731.25,473.16 735.53,469.98 738.00,467.40 C740.47,464.82 741.94,463.03 741.25,463.41 C739.23,464.55 739.82,462.47 742.10,460.41 C743.26,459.36 744.83,457.29 745.60,455.80 C748.10,450.97 747.08,451.41 743.51,456.71 C737.18,466.10 727.27,471.02 714.72,470.98 C703.64,470.94 695.69,466.55 688.26,456.35 C686.32,453.68 685.07,452.40 685.49,453.50 C685.91,454.60 686.68,457.74 687.21,460.48 C688.72,468.31 690.02,469.92 697.48,473.21 C709.37,478.44 719.22,478.84 728.50,474.46 ZM 726.55 464.02 C731.65,461.84 736.96,457.19 739.32,452.85 L 741.14 449.50 L 738.83 452.50 C735.85,456.35 732.04,459.92 729.50,461.22 C728.18,461.90 728.58,461.11 730.67,458.88 C733.62,455.74 738.00,445.28 738.00,441.38 C738.00,438.29 732.53,428.82 730.00,427.53 C726.76,425.89 718.46,424.52 714.01,424.91 C709.72,425.28 702.23,428.99 699.38,432.15 C695.09,436.91 693.98,439.65 693.81,445.92 C693.64,451.90 693.58,452.05 692.24,449.49 C691.47,448.02 690.62,447.04 690.35,447.31 C688.55,449.12 698.14,460.86 703.96,463.98 C709.82,467.11 719.30,467.13 726.55,464.02 ZM 639.57 346.23 C640.16,345.83 640.95,344.67 641.33,343.65 C641.74,342.55 642.61,342.02 643.48,342.35 C644.28,342.66 645.21,342.47 645.55,341.92 C645.88,341.38 648.07,340.04 650.41,338.94 C652.76,337.83 656.21,335.28 658.09,333.26 C661.69,329.38 661.06,329.66 654.39,334.89 C646.19,341.32 633.54,342.86 624.31,338.56 C621.45,337.23 616.96,334.20 614.32,331.82 L 609.53 327.50 L 612.30 331.23 C614.31,333.94 614.61,334.79 613.37,334.31 C612.28,333.89 611.91,334.05 612.34,334.74 C612.71,335.34 612.53,335.99 611.93,336.19 C610.59,336.64 614.38,341.60 617.24,343.13 C619.43,344.30 631.71,346.77 636.00,346.89 C637.38,346.94 638.98,346.64 639.57,346.23 ZM 657.53 336.19 C657.20,335.87 655.72,336.89 654.22,338.45 L 651.50 341.30 L 654.81 339.04 C656.63,337.80 657.85,336.52 657.53,336.19 ZM 637.50 334.00 C637.50,333.10 639.40,331.87 642.27,330.92 C646.06,329.66 647.62,328.41 649.90,324.82 C651.47,322.34 653.49,320.03 654.38,319.68 C656.83,318.74 656.62,309.87 654.09,307.58 C653.04,306.63 651.92,304.82 651.61,303.56 C650.93,300.87 640.73,296.00 635.75,296.00 C630.97,296.00 624.40,299.70 621.03,304.27 C618.31,307.97 618.00,309.14 618.00,315.65 C618.00,324.50 619.02,326.92 624.03,330.02 C628.44,332.74 628.66,333.91 624.34,331.67 C620.74,329.79 617.81,326.58 615.08,321.50 C613.76,319.04 613.19,318.46 613.58,320.00 C614.60,323.92 617.87,328.77 621.03,331.02 C627.39,335.55 637.50,337.38 637.50,334.00 ZM 444.26 330.70 C449.14,327.83 454.07,322.71 456.56,317.89 C458.81,313.54 457.68,313.19 455.16,317.46 C452.85,321.37 445.52,326.48 440.03,328.01 C430.92,330.54 420.08,328.20 411.82,321.92 L 406.50 317.89 L 411.94 322.94 C414.93,325.72 416.99,328.00 416.50,328.00 C416.02,328.00 414.58,327.02 413.30,325.81 C411.72,324.33 410.65,323.95 409.95,324.65 C408.08,326.52 410.00,328.53 415.77,330.74 C423.75,333.78 424.59,333.92 432.64,333.60 C438.20,333.38 440.78,332.73 444.26,330.70 ZM 436.59 319.50 C438.19,318.13 439.83,317.00 440.22,317.00 C441.69,317.00 444.00,310.98 444.00,307.14 C444.00,303.52 443.63,302.97 439.57,300.60 C437.14,299.17 434.66,298.00 434.07,298.00 C432.38,298.00 432.82,302.15 434.75,304.29 C436.42,306.15 436.42,306.22 434.58,305.87 C433.52,305.66 431.59,303.48 430.28,301.00 C428.97,298.53 427.55,296.15 427.13,295.73 C425.94,294.54 417.10,301.76 416.42,304.48 C415.71,307.29 416.52,309.00 418.56,309.00 C420.19,309.00 420.53,312.55 419.00,313.50 C417.50,314.42 417.79,317.71 419.43,318.33 C420.21,318.63 421.39,318.23 422.05,317.44 C423.87,315.25 425.39,315.70 427.34,319.00 C429.55,322.73 432.64,322.90 436.59,319.50 ZM 302.25 305.76 C302.97,303.58 308.37,301.10 315.86,299.53 C324.15,297.78 328.00,297.59 328.00,298.92 C328.00,299.98 321.88,302.11 310.59,304.99 C301.25,307.37 301.73,307.32 302.25,305.76 ZM 384.00 223.12 C384.00,221.61 394.32,214.20 400.13,211.54 C413.34,205.49 431.58,202.88 446.17,204.95 C454.45,206.13 461.67,209.11 460.57,210.89 C460.27,211.37 453.84,212.06 446.27,212.44 C421.43,213.67 407.69,216.02 392.98,221.55 C386.01,224.17 384.00,224.52 384.00,223.12 ZM 549.00 218.52 C549.00,216.30 558.33,211.41 567.43,208.86 C576.56,206.31 593.27,205.83 600.75,207.90 C608.38,210.01 606.01,211.34 592.50,212.53 C583.93,213.29 565.26,216.61 558.57,218.56 C552.20,220.42 549.00,220.41 549.00,218.52 ZM 470.00 665.61 C470.00,665.39 470.70,664.95 471.55,664.62 C472.44,664.28 472.84,664.44 472.49,665.01 C471.91,665.96 470.00,666.42 470.00,665.61 ZM 736.00 467.28 C736.00,466.02 738.86,463.53 739.53,464.20 C739.80,464.46 739.11,465.50 738.01,466.49 C736.90,467.49 736.00,467.85 736.00,467.28 ZM 445.00 328.72 C445.00,328.53 446.46,327.31 448.25,326.00 C450.26,324.52 450.96,324.28 450.08,325.36 C448.75,327.00 445.00,329.48 445.00,328.72 ZM 422.00 305.61 C422.00,304.11 424.43,302.76 425.39,303.73 C426.10,304.43 424.12,307.00 422.88,307.00 C422.39,307.00 422.00,306.37 422.00,305.61 Z" fill="rgb(254,250,254)"/>
</g>
</svg>